<svg width="255" height="150" viewBox="0 0 255 150" fill="none" xmlns="http://www.w3.org/2000/svg">
<g clip-path="url(#clip0_39_44)">
<g opacity="0.7">
<path d="M127.5 150.001C197.916 150.001 255 121.564 255 86.4866C255 51.4088 197.916 22.9727 127.5 22.9727C57.0837 22.9727 0 51.4088 0 86.4866C0 121.564 57.0837 150.001 127.5 150.001Z" fill="url(#paint0_linear_39_44)"/>
</g>
<path d="M127.5 147.251C194.869 147.251 249.482 120.045 249.482 86.4857C249.482 52.9261 194.869 25.7207 127.5 25.7207C60.1317 25.7207 5.51855 52.9261 5.51855 86.4857C5.51855 120.045 60.1317 147.251 127.5 147.251Z" fill="#FFBF00"/>
<g opacity="0.5">
<path d="M222.052 123.769L219.873 120.446L215.545 105.893L213.765 99.4594H211.954C211.973 99.3213 211.983 99.182 211.985 99.0426C211.984 98.5367 211.855 98.0396 211.61 97.5997C211.364 97.1598 211.011 96.7923 210.584 96.533C210.594 96.4395 210.6 96.3455 210.6 96.2514C210.6 95.5833 210.375 94.9354 209.963 94.4149C209.833 94.2483 209.684 94.0971 209.52 93.9643H209.501C209.429 93.9051 209.354 93.8516 209.279 93.8009L209.216 93.7615C209.152 93.7221 209.086 93.6854 209.019 93.6516L208.931 93.6066L208.742 93.5249L208.643 93.4883C208.579 93.4658 208.513 93.4489 208.449 93.4291L208.341 93.4038C208.272 93.3869 208.202 93.3756 208.13 93.3644H208.034C207.928 93.3521 207.822 93.3455 207.715 93.3446C207.092 93.3442 206.487 93.5509 205.99 93.9333C205.883 93.6275 205.727 93.3419 205.528 93.0883C205.396 92.923 205.247 92.772 205.085 92.6377C205.078 92.639 205.072 92.639 205.065 92.6377C204.993 92.5813 204.919 92.5278 204.841 92.4771L204.778 92.4349C204.714 92.3954 204.65 92.3588 204.584 92.325L204.495 92.2828C204.434 92.2518 204.37 92.2265 204.307 92.2011L204.204 92.1617L204.011 92.1053L203.905 92.0772C203.836 92.0609 203.766 92.0487 203.695 92.0406L203.598 92.0237C203.492 92.0123 203.386 92.0067 203.28 92.0068C203.166 92.0068 203.053 92.0068 202.942 92.0265C203.207 91.5204 203.32 90.9462 203.267 90.3753C203.214 89.8044 202.997 89.2619 202.643 88.8156C202.53 88.6475 202.4 88.4918 202.255 88.3508C202.745 87.8391 203.034 87.1623 203.067 86.4487C203.099 85.735 202.874 85.0339 202.432 84.478C202.302 84.3114 202.153 84.1602 201.989 84.0274L201.978 84.0133C201.906 83.9541 201.832 83.9006 201.757 83.8499L201.693 83.8105C201.629 83.7711 201.563 83.7345 201.497 83.7007L201.411 83.6556L201.22 83.5739L201.12 83.5373C201.056 83.5148 200.99 83.4979 200.926 83.4781C200.863 83.4584 200.857 83.4584 200.821 83.4528C200.785 83.4472 200.68 83.4246 200.608 83.4134L200.511 83.3993C200.405 83.387 200.299 83.3804 200.192 83.3796C200.118 83.3796 200.04 83.3796 199.965 83.3796C199.907 83.2866 199.846 83.1993 199.78 83.0979C199.648 82.9326 199.499 82.7816 199.337 82.6473C199.329 82.6442 199.323 82.6394 199.318 82.6332C199.246 82.5755 199.171 82.5219 199.093 82.4726L199.03 82.4304C198.966 82.3909 198.902 82.3543 198.836 82.3205L198.747 82.2783C198.686 82.2473 198.623 82.2219 198.559 82.1966L198.457 82.1572L198.263 82.1008L198.157 82.0727C198.088 82.0558 198.016 82.0445 197.947 82.0332L197.825 82.0417C197.719 82.0304 197.613 82.0247 197.507 82.0248C197.012 82.0254 196.526 82.1571 196.096 82.407C195.666 82.6569 195.308 83.0164 195.056 83.45C194.985 83.4331 194.915 83.4218 194.843 83.4105L194.746 83.3965C194.641 83.3842 194.534 83.3776 194.428 83.3767H194.287C194.435 82.9133 194.467 82.4197 194.381 81.9404C194.295 81.461 194.093 81.0109 193.794 80.6306C193.662 80.4653 193.513 80.3143 193.351 80.1799L193.332 80.1658C193.26 80.1073 193.185 80.0528 193.107 80.0025L193.044 79.963C192.98 79.9236 192.916 79.887 192.85 79.8532L192.761 79.8081L192.573 79.7265L192.471 79.6898C192.407 79.6673 192.343 79.6504 192.277 79.6307L192.171 79.6053C192.102 79.5884 192.03 79.5772 191.961 79.5659L191.861 79.5518C191.757 79.5395 191.651 79.5329 191.546 79.5321C191.039 79.5344 190.542 79.6726 190.104 79.9327C189.667 80.1928 189.305 80.5657 189.054 81.0136C189.004 80.977 188.957 80.9404 188.904 80.9066L188.841 80.8672C188.777 80.8263 188.711 80.7887 188.644 80.7545L188.558 80.7123C188.497 80.6813 188.434 80.6559 188.37 80.6306L188.301 80.6024C188.63 80.3749 188.908 80.0805 189.12 79.7379C189.331 79.3953 189.47 79.0119 189.529 78.6118C189.587 78.2118 189.564 77.8037 189.46 77.4133C189.356 77.023 189.173 76.6588 188.924 76.3437C188.793 76.1771 188.645 76.0259 188.481 75.8931H188.461C188.391 75.8346 188.317 75.78 188.24 75.7297L188.176 75.6903C188.113 75.6509 188.046 75.6142 187.98 75.5776L187.894 75.5354L187.703 75.4537L187.603 75.4171C187.539 75.3946 187.476 75.3776 187.409 75.3579L187.304 75.3298L187.091 75.2932H186.994C186.888 75.2809 186.782 75.2743 186.676 75.2734C186.297 75.2734 185.922 75.3494 185.572 75.4969C185.222 75.6444 184.904 75.8606 184.637 76.1332C184.369 76.4058 184.157 76.7293 184.012 77.0854C183.867 77.4415 183.793 77.823 183.793 78.2083C183.793 78.2337 183.793 78.2618 183.793 78.2872C183.73 78.3041 183.663 78.3182 183.599 78.3379C183.154 78.4794 182.748 78.7289 182.418 79.065C182.087 79.401 181.842 79.8136 181.703 80.2672C181.616 80.5498 181.572 80.8443 181.573 81.1404C181.573 81.2486 181.578 81.3567 181.589 81.4643L181.606 81.5629V81.6305L181.573 81.6108L181.509 81.5713L181.315 81.4587L181.227 81.4164L181.038 81.3347L180.936 81.2981C180.872 81.275 180.808 81.2553 180.742 81.239L180.637 81.2108L180.427 81.1742L180.33 81.1601C180.224 81.1478 180.118 81.1412 180.011 81.1404C179.632 81.1404 179.257 81.2163 178.907 81.3638C178.557 81.5113 178.239 81.7275 177.971 82C177.703 82.2725 177.491 82.5961 177.346 82.9521C177.201 83.3082 177.126 83.6898 177.126 84.0753C177.127 84.1826 177.134 84.2897 177.146 84.3963C177.146 84.4301 177.146 84.4639 177.146 84.4949C177.146 84.5682 177.168 84.6414 177.184 84.7118C177.201 84.7822 177.201 84.7822 177.212 84.8188C177.223 84.8555 177.248 84.9512 177.267 85.016L177.306 85.1174C177.331 85.185 177.356 85.247 177.386 85.3117L177.428 85.3991C177.461 85.4667 177.497 85.5343 177.536 85.599L177.578 85.6638C177.626 85.7418 177.679 85.817 177.735 85.8891L177.749 85.9089L177.791 85.9624H177.741C177.672 85.9455 177.6 85.9342 177.528 85.9229L177.431 85.9089C177.325 85.8966 177.219 85.89 177.112 85.8891C176.497 85.8892 175.899 86.0893 175.403 86.4603C174.908 86.8312 174.543 87.3535 174.36 87.9509C174.317 88.0993 174.284 88.2509 174.263 88.4044H174.241L174.175 88.3621C174.111 88.3227 174.047 88.2861 173.981 88.2523L173.892 88.21C173.831 88.179 173.768 88.1537 173.704 88.1283L173.604 88.0889L173.411 88.0326L173.305 88.0044C173.233 87.9875 173.164 87.9762 173.092 87.965L172.995 87.9509C172.89 87.9386 172.783 87.932 172.677 87.9312C171.912 87.9319 171.179 88.2415 170.639 88.7918C170.098 89.3421 169.795 90.0882 169.795 90.866C169.795 90.9742 169.8 91.0824 169.811 91.19L169.828 91.2885C169.828 91.3589 169.85 91.4322 169.864 91.5026C169.878 91.573 169.883 91.5758 169.892 91.6096C169.9 91.6434 169.928 91.7448 169.95 91.8096C169.972 91.8744 169.972 91.8772 169.986 91.911C170 91.9448 170.035 92.0406 170.066 92.1025L170.107 92.1927C170.141 92.2603 170.179 92.325 170.218 92.3898C170.229 92.4124 170.242 92.434 170.257 92.4546C170.307 92.5335 170.359 92.6095 170.415 92.6828L170.431 92.7025V92.7193C170.152 93.18 170.005 93.7105 170.005 94.2516C170.005 94.3588 170.011 94.466 170.022 94.5727L170.038 94.6713C170.038 94.7445 170.06 94.8177 170.074 94.8881C170.088 94.9585 170.094 94.9585 170.102 94.9952C170.11 95.0318 170.138 95.1275 170.16 95.1923C170.182 95.2571 170.182 95.2599 170.196 95.2937C170.21 95.3275 170.249 95.4261 170.276 95.4881L170.318 95.5754C170.352 95.6439 170.388 95.7106 170.429 95.7754C170.429 95.7979 170.454 95.8204 170.467 95.8401C169.889 95.8801 169.335 96.0974 168.88 96.4634C168.425 96.8294 168.089 97.3269 167.917 97.8906C167.83 98.1731 167.786 98.4676 167.787 98.7637C167.787 98.8719 167.793 98.9801 167.804 99.0877L167.821 99.1862C167.828 99.2582 167.84 99.3297 167.857 99.4003L167.881 99.5045H163.565L157.344 120.404L154.771 123.769H222.052ZM183.323 90.621L183.267 90.5337L183.4 90.4971L183.323 90.621ZM196.837 87.9002L196.884 87.8185L196.989 87.841C196.939 87.8607 196.887 87.8776 196.837 87.9002Z" fill="url(#paint1_linear_39_44)"/>
</g>
<path d="M167.996 110.084C169.503 110.084 170.726 108.84 170.726 107.306C170.726 105.773 169.503 104.529 167.996 104.529C166.488 104.529 165.266 105.773 165.266 107.306C165.266 108.84 166.488 110.084 167.996 110.084Z" fill="#795548"/>
<path opacity="0.05" d="M165.689 107.734C165.689 107.212 165.834 106.699 166.107 106.257C166.38 105.815 166.771 105.46 167.234 105.234C167.698 105.008 168.214 104.919 168.725 104.979C169.235 105.039 169.718 105.244 170.119 105.571C169.879 105.266 169.579 105.016 169.238 104.838C168.898 104.659 168.523 104.555 168.141 104.534C167.758 104.512 167.374 104.573 167.016 104.712C166.658 104.851 166.332 105.065 166.061 105.341C165.79 105.617 165.579 105.948 165.442 106.312C165.305 106.677 165.245 107.066 165.266 107.456C165.287 107.845 165.388 108.226 165.564 108.573C165.739 108.92 165.985 109.225 166.284 109.469C165.896 108.977 165.686 108.365 165.689 107.734Z" fill="white"/>
<path d="M177.442 110.726C178.95 110.726 180.172 109.483 180.172 107.949C180.172 106.415 178.95 105.172 177.442 105.172C175.934 105.172 174.712 106.415 174.712 107.949C174.712 109.483 175.934 110.726 177.442 110.726Z" fill="#795548"/>
<path opacity="0.05" d="M175.122 108.373C175.123 107.851 175.268 107.339 175.542 106.897C175.816 106.456 176.206 106.102 176.669 105.876C177.132 105.65 177.648 105.561 178.158 105.62C178.668 105.679 179.151 105.884 179.552 106.21C179.312 105.906 179.012 105.658 178.671 105.481C178.33 105.303 177.957 105.201 177.575 105.18C177.192 105.159 176.81 105.22 176.453 105.359C176.095 105.499 175.771 105.713 175.5 105.988C175.229 106.264 175.019 106.594 174.882 106.958C174.745 107.321 174.685 107.71 174.705 108.099C174.726 108.488 174.826 108.868 175.001 109.214C175.175 109.561 175.419 109.866 175.717 110.111C175.33 109.617 175.12 109.004 175.122 108.373Z" fill="white"/>
<path d="M182.9 111.15C184.408 111.15 185.63 109.907 185.63 108.373C185.63 106.839 184.408 105.596 182.9 105.596C181.392 105.596 180.17 106.839 180.17 108.373C180.17 109.907 181.392 111.15 182.9 111.15Z" fill="#795548"/>
<path opacity="0.05" d="M180.591 108.798C180.591 108.276 180.735 107.764 181.009 107.321C181.282 106.879 181.673 106.524 182.136 106.298C182.6 106.072 183.116 105.984 183.626 106.043C184.137 106.103 184.62 106.308 185.021 106.635C184.781 106.332 184.481 106.084 184.14 105.906C183.799 105.729 183.425 105.626 183.043 105.606C182.661 105.585 182.279 105.646 181.921 105.785C181.564 105.925 181.239 106.139 180.969 106.414C180.698 106.689 180.487 107.02 180.35 107.383C180.213 107.747 180.153 108.136 180.174 108.525C180.194 108.913 180.295 109.293 180.469 109.64C180.644 109.987 180.888 110.292 181.186 110.536C180.8 110.043 180.59 109.43 180.591 108.798Z" fill="white"/>
<path d="M185.627 110.084C187.135 110.084 188.357 108.84 188.357 107.306C188.357 105.773 187.135 104.529 185.627 104.529C184.12 104.529 182.897 105.773 182.897 107.306C182.897 108.84 184.12 110.084 185.627 110.084Z" fill="#795548"/>
<path opacity="0.05" d="M183.317 107.734C183.318 107.212 183.463 106.701 183.737 106.259C184.011 105.817 184.401 105.463 184.864 105.237C185.327 105.011 185.843 104.923 186.353 104.982C186.863 105.041 187.346 105.245 187.747 105.571C187.507 105.266 187.207 105.016 186.866 104.838C186.526 104.659 186.151 104.555 185.768 104.534C185.386 104.512 185.002 104.573 184.644 104.712C184.286 104.851 183.96 105.065 183.689 105.341C183.418 105.617 183.207 105.948 183.07 106.312C182.933 106.677 182.873 107.066 182.894 107.456C182.915 107.845 183.016 108.226 183.192 108.573C183.367 108.92 183.613 109.225 183.912 109.469C183.524 108.977 183.314 108.365 183.317 107.734Z" fill="white"/>
<path d="M206.827 110.084C208.334 110.084 209.557 108.84 209.557 107.306C209.557 105.773 208.334 104.529 206.827 104.529C205.319 104.529 204.097 105.773 204.097 107.306C204.097 108.84 205.319 110.084 206.827 110.084Z" fill="#795548"/>
<path opacity="0.05" d="M204.518 107.734C204.518 107.212 204.663 106.699 204.936 106.257C205.21 105.815 205.6 105.46 206.064 105.234C206.527 105.008 207.043 104.919 207.554 104.979C208.064 105.039 208.547 105.244 208.948 105.571C208.708 105.266 208.408 105.016 208.068 104.838C207.727 104.659 207.353 104.555 206.97 104.534C206.587 104.512 206.204 104.573 205.845 104.712C205.487 104.851 205.162 105.065 204.89 105.341C204.619 105.617 204.408 105.948 204.271 106.312C204.134 106.677 204.074 107.066 204.095 107.456C204.116 107.845 204.218 108.226 204.393 108.573C204.569 108.92 204.814 109.225 205.113 109.469C204.726 108.977 204.516 108.365 204.518 107.734Z" fill="white"/>
<path d="M196.124 109.873C197.631 109.873 198.853 108.629 198.853 107.096C198.853 105.562 197.631 104.318 196.124 104.318C194.616 104.318 193.394 105.562 193.394 107.096C193.394 108.629 194.616 109.873 196.124 109.873Z" fill="#795548"/>
<path opacity="0.05" d="M193.815 107.521C193.815 106.999 193.961 106.488 194.234 106.046C194.508 105.604 194.899 105.25 195.362 105.024C195.824 104.798 196.34 104.71 196.85 104.769C197.36 104.828 197.844 105.032 198.244 105.358C198.004 105.055 197.704 104.806 197.363 104.629C197.023 104.452 196.649 104.349 196.267 104.328C195.885 104.307 195.502 104.369 195.145 104.508C194.788 104.647 194.463 104.861 194.192 105.137C193.922 105.412 193.711 105.742 193.574 106.106C193.437 106.47 193.377 106.858 193.397 107.247C193.418 107.636 193.519 108.016 193.693 108.363C193.868 108.709 194.112 109.015 194.41 109.259C194.022 108.766 193.811 108.153 193.815 107.521Z" fill="white"/>
<path d="M171.985 107.523C173.493 107.523 174.715 106.28 174.715 104.746C174.715 103.212 173.493 101.969 171.985 101.969C170.477 101.969 169.255 103.212 169.255 104.746C169.255 106.28 170.477 107.523 171.985 107.523Z" fill="#795548"/>
<path opacity="0.05" d="M169.676 105.172C169.677 104.649 169.822 104.138 170.096 103.696C170.369 103.255 170.76 102.9 171.223 102.674C171.686 102.448 172.202 102.36 172.712 102.419C173.222 102.478 173.705 102.682 174.106 103.008C173.866 102.705 173.565 102.457 173.225 102.279C172.884 102.102 172.51 101.999 172.128 101.979C171.746 101.958 171.364 102.019 171.006 102.158C170.649 102.298 170.324 102.512 170.054 102.787C169.783 103.063 169.572 103.393 169.435 103.756C169.298 104.12 169.238 104.509 169.259 104.898C169.279 105.286 169.38 105.667 169.554 106.013C169.729 106.36 169.973 106.665 170.271 106.909C169.884 106.416 169.674 105.803 169.676 105.172Z" fill="white"/>
<path d="M194.024 101.757C195.532 101.757 196.754 100.514 196.754 98.9803C196.754 97.4465 195.532 96.2031 194.024 96.2031C192.516 96.2031 191.294 97.4465 191.294 98.9803C191.294 100.514 192.516 101.757 194.024 101.757Z" fill="#795548"/>
<path opacity="0.05" d="M191.715 99.4053C191.714 98.8803 191.86 98.366 192.135 97.922C192.411 97.4779 192.804 97.1225 193.27 96.8968C193.736 96.6712 194.255 96.5847 194.768 96.6473C195.28 96.7099 195.764 96.9191 196.164 97.2506C195.924 96.9474 195.624 96.699 195.283 96.5216C194.943 96.3441 194.569 96.2416 194.187 96.2208C193.805 96.1999 193.422 96.2611 193.065 96.4004C192.707 96.5398 192.383 96.754 192.112 97.0294C191.842 97.3047 191.631 97.6349 191.494 97.9985C191.357 98.3621 191.297 98.751 191.317 99.1398C191.338 99.5286 191.439 99.9087 191.613 100.255C191.787 100.602 192.032 100.907 192.33 101.152C191.933 100.659 191.716 100.042 191.715 99.4053Z" fill="white"/>
<path d="M185.627 95.3531C187.135 95.3531 188.357 94.1098 188.357 92.576C188.357 91.0422 187.135 89.7988 185.627 89.7988C184.12 89.7988 182.897 91.0422 182.897 92.576C182.897 94.1098 184.12 95.3531 185.627 95.3531Z" fill="#795548"/>
<path d="M188.345 91.0797C189.853 91.0797 191.075 89.8363 191.075 88.3025C191.075 86.7688 189.853 85.5254 188.345 85.5254C186.837 85.5254 185.615 86.7688 185.615 88.3025C185.615 89.8363 186.837 91.0797 188.345 91.0797Z" fill="#795548"/>
<path opacity="0.05" d="M183.318 93.0016C183.32 92.4799 183.466 91.9693 183.74 91.5283C184.014 91.0872 184.405 90.7335 184.867 90.5078C185.329 90.282 185.845 90.1933 186.354 90.2518C186.864 90.3103 187.347 90.5136 187.748 90.8385C187.508 90.5353 187.208 90.2869 186.867 90.1094C186.527 89.932 186.153 89.8295 185.771 89.8087C185.389 89.7878 185.006 89.849 184.649 89.9883C184.291 90.1276 183.967 90.3419 183.696 90.6173C183.426 90.8926 183.215 91.2228 183.078 91.5864C182.941 91.95 182.881 92.3389 182.901 92.7277C182.922 93.1165 183.023 93.4966 183.197 93.8432C183.371 94.1898 183.616 94.4952 183.914 94.7395C183.526 94.2465 183.316 93.6331 183.318 93.0016Z" fill="white"/>
<path d="M176.811 97.4879C178.319 97.4879 179.541 96.2445 179.541 94.7107C179.541 93.177 178.319 91.9336 176.811 91.9336C175.303 91.9336 174.081 93.177 174.081 94.7107C174.081 96.2445 175.303 97.4879 176.811 97.4879Z" fill="#795548"/>
<path opacity="0.05" d="M174.505 95.1364C174.506 94.6142 174.651 94.1029 174.925 93.6612C175.199 93.2194 175.589 92.8652 176.052 92.6392C176.515 92.4133 177.031 92.3248 177.541 92.3839C178.051 92.4429 178.534 92.6472 178.935 92.9733C178.695 92.67 178.395 92.4216 178.054 92.2442C177.713 92.0668 177.34 91.9643 176.957 91.9434C176.575 91.9226 176.193 91.9838 175.835 92.1231C175.478 92.2624 175.153 92.4767 174.883 92.752C174.612 93.0274 174.401 93.3576 174.265 93.7212C174.128 94.0848 174.067 94.4736 174.088 94.8625C174.108 95.2513 174.209 95.6314 174.384 95.978C174.558 96.3246 174.802 96.6299 175.1 96.8742C174.712 96.3814 174.502 95.7679 174.505 95.1364Z" fill="white"/>
<path d="M171.354 101.543C172.862 101.543 174.084 100.299 174.084 98.7654C174.084 97.2317 172.862 95.9883 171.354 95.9883C169.846 95.9883 168.624 97.2317 168.624 98.7654C168.624 100.299 169.846 101.543 171.354 101.543Z" fill="#795548"/>
<path opacity="0.05" d="M169.044 99.1939C169.045 98.672 169.191 98.161 169.465 97.7195C169.739 97.278 170.129 96.9239 170.591 96.6978C171.054 96.4717 171.569 96.3828 172.079 96.4412C172.589 96.4996 173.073 96.7029 173.474 97.0279C173.234 96.7247 172.934 96.4763 172.593 96.2989C172.252 96.1215 171.879 96.019 171.496 95.9981C171.114 95.9773 170.732 96.0385 170.374 96.1778C170.017 96.3171 169.692 96.5314 169.422 96.8067C169.151 97.0821 168.941 97.4123 168.804 97.7759C168.667 98.1395 168.606 98.5283 168.627 98.9171C168.647 99.306 168.748 99.686 168.923 100.033C169.097 100.379 169.341 100.685 169.639 100.929C169.252 100.437 169.042 99.8245 169.044 99.1939Z" fill="white"/>
<path d="M187.725 103.039C189.233 103.039 190.455 101.795 190.455 100.262C190.455 98.7278 189.233 97.4844 187.725 97.4844C186.217 97.4844 184.995 98.7278 184.995 100.262C184.995 101.795 186.217 103.039 187.725 103.039Z" fill="#795548"/>
<path opacity="0.05" d="M185.419 100.687C185.42 100.165 185.565 99.6537 185.839 99.2119C186.113 98.7702 186.503 98.416 186.966 98.19C187.429 97.9641 187.945 97.8756 188.455 97.9346C188.965 97.9937 189.448 98.198 189.849 98.524C189.609 98.2208 189.309 97.9724 188.968 97.795C188.627 97.6176 188.254 97.5151 187.871 97.4942C187.489 97.4734 187.107 97.5346 186.749 97.6739C186.392 97.8132 186.067 98.0275 185.797 98.3028C185.526 98.5782 185.316 98.9083 185.179 99.2719C185.042 99.6356 184.981 100.024 185.002 100.413C185.022 100.802 185.123 101.182 185.298 101.529C185.472 101.875 185.716 102.181 186.014 102.425C185.626 101.932 185.416 101.319 185.419 100.687Z" fill="white"/>
<path d="M193.814 89.8004C195.322 89.8004 196.544 88.557 196.544 87.0232C196.544 85.4895 195.322 84.2461 193.814 84.2461C192.306 84.2461 191.084 85.4895 191.084 87.0232C191.084 88.557 192.306 89.8004 193.814 89.8004Z" fill="#795548"/>
<path opacity="0.05" d="M191.505 87.4489C191.506 86.9267 191.651 86.4154 191.925 85.9737C192.199 85.5319 192.589 85.1777 193.052 84.9517C193.515 84.7258 194.031 84.6373 194.541 84.6964C195.051 84.7554 195.534 84.9597 195.935 85.2858C195.695 84.9825 195.395 84.7341 195.054 84.5567C194.713 84.3793 194.34 84.2768 193.957 84.2559C193.575 84.2351 193.193 84.2963 192.835 84.4356C192.478 84.5749 192.153 84.7892 191.883 85.0645C191.612 85.3399 191.401 85.6701 191.265 86.0337C191.128 86.3973 191.067 86.7861 191.088 87.175C191.108 87.5638 191.209 87.9439 191.384 88.2905C191.558 88.6371 191.802 88.9424 192.1 89.1867C191.713 88.6932 191.503 88.0802 191.505 87.4489Z" fill="white"/>
<path d="M187.096 87.0231C188.604 87.0231 189.826 85.7797 189.826 84.2459C189.826 82.7121 188.604 81.4688 187.096 81.4688C185.588 81.4688 184.366 82.7121 184.366 84.2459C184.366 85.7797 185.588 87.0231 187.096 87.0231Z" fill="#795548"/>
<path opacity="0.05" d="M184.787 84.6744C184.787 84.152 184.933 83.6403 185.206 83.1981C185.48 82.7559 185.87 82.4013 186.333 82.175C186.796 81.9487 187.312 81.86 187.822 81.9189C188.333 81.9779 188.816 82.1822 189.217 82.5084C188.977 82.2052 188.677 81.9568 188.336 81.7794C187.995 81.6019 187.622 81.4995 187.24 81.4786C186.857 81.4577 186.475 81.5189 186.118 81.6583C185.76 81.7976 185.436 82.0119 185.165 82.2872C184.894 82.5625 184.684 82.8927 184.547 83.2563C184.41 83.6199 184.35 84.0088 184.37 84.3976C184.391 84.7864 184.491 85.1665 184.666 85.5131C184.84 85.8597 185.084 86.1651 185.382 86.4094C184.996 85.9167 184.786 85.3047 184.787 84.6744Z" fill="white"/>
<path d="M180.169 87.6656C181.677 87.6656 182.899 86.4223 182.899 84.8885C182.899 83.3547 181.677 82.1113 180.169 82.1113C178.662 82.1113 177.439 83.3547 177.439 84.8885C177.439 86.4223 178.662 87.6656 180.169 87.6656Z" fill="#795548"/>
<path opacity="0.05" d="M177.86 85.3141C177.862 84.7924 178.008 84.2818 178.282 83.8408C178.556 83.3997 178.947 83.046 179.409 82.8203C179.871 82.5945 180.387 82.5058 180.896 82.5643C181.406 82.6228 181.889 82.8261 182.29 83.151C182.05 82.8478 181.75 82.5994 181.409 82.4219C181.069 82.2445 180.695 82.142 180.313 82.1212C179.931 82.1003 179.548 82.1615 179.191 82.3008C178.833 82.4402 178.509 82.6544 178.238 82.9298C177.968 83.2051 177.757 83.5353 177.62 83.8989C177.483 84.2625 177.423 84.6514 177.443 85.0402C177.464 85.429 177.565 85.8091 177.739 86.1557C177.913 86.5023 178.158 86.8077 178.456 87.052C178.068 86.559 177.858 85.9456 177.86 85.3141Z" fill="white"/>
<path d="M180.169 92.15C181.677 92.15 182.899 90.9066 182.899 89.3729C182.899 87.8391 181.677 86.5957 180.169 86.5957C178.662 86.5957 177.439 87.8391 177.439 89.3729C177.439 90.9066 178.662 92.15 180.169 92.15Z" fill="#795548"/>
<path opacity="0.05" d="M177.86 89.7985C177.862 89.2768 178.008 88.7662 178.282 88.3251C178.556 87.8841 178.947 87.5304 179.409 87.3047C179.871 87.0789 180.387 86.9902 180.896 87.0487C181.406 87.1072 181.889 87.3105 182.29 87.6354C182.05 87.3321 181.75 87.0837 181.409 86.9063C181.069 86.7289 180.695 86.6264 180.313 86.6055C179.931 86.5847 179.548 86.6459 179.191 86.7852C178.833 86.9245 178.509 87.1388 178.238 87.4141C177.968 87.6895 177.757 88.0197 177.62 88.3833C177.483 88.7469 177.423 89.1358 177.443 89.5246C177.464 89.9134 177.565 90.2935 177.739 90.6401C177.913 90.9867 178.158 91.292 178.456 91.5363C178.068 91.0434 177.858 90.43 177.86 89.7985Z" fill="white"/>
<path d="M191.504 99.1949C193.012 99.1949 194.234 97.9516 194.234 96.4178C194.234 94.884 193.012 93.6406 191.504 93.6406C189.997 93.6406 188.774 94.884 188.774 96.4178C188.774 97.9516 189.997 99.1949 191.504 99.1949Z" fill="#795548"/>
<path opacity="0.05" d="M189.196 96.8459C189.195 96.3233 189.34 95.8112 189.614 95.3688C189.887 94.9264 190.278 94.5716 190.741 94.3455C191.204 94.1193 191.721 94.031 192.231 94.0907C192.741 94.1504 193.225 94.3556 193.625 94.6828C193.387 94.3756 193.087 94.1232 192.745 93.9424C192.404 93.7615 192.029 93.6563 191.644 93.6336C191.26 93.6109 190.875 93.6712 190.515 93.8105C190.156 93.9499 189.829 94.1652 189.557 94.4422C189.285 94.7192 189.073 95.0517 188.937 95.4178C188.8 95.7839 188.741 96.1753 188.764 96.5662C188.786 96.9572 188.89 97.3389 189.068 97.6861C189.246 98.0333 189.494 98.3383 189.796 98.5809C189.408 98.0891 189.196 97.477 189.196 96.8459Z" fill="white"/>
<path d="M194.653 97.7008C196.161 97.7008 197.383 96.4574 197.383 94.9236C197.383 93.3899 196.161 92.1465 194.653 92.1465C193.145 92.1465 191.923 93.3899 191.923 94.9236C191.923 96.4574 193.145 97.7008 194.653 97.7008Z" fill="#795548"/>
<path opacity="0.05" d="M192.344 95.3498C192.345 94.8276 192.49 94.3163 192.764 93.8746C193.038 93.4328 193.428 93.0786 193.891 92.8526C194.354 92.6267 194.87 92.5382 195.38 92.5973C195.89 92.6563 196.373 92.8606 196.774 93.1867C196.534 92.8821 196.234 92.6324 195.893 92.4539C195.552 92.2754 195.178 92.1721 194.795 92.1507C194.412 92.1293 194.029 92.1903 193.671 92.3297C193.312 92.4691 192.987 92.6838 192.716 92.9598C192.445 93.2358 192.234 93.5668 192.097 93.9313C191.961 94.2958 191.901 94.6855 191.922 95.0751C191.944 95.4646 192.045 95.8452 192.221 96.192C192.397 96.5388 192.642 96.844 192.942 97.0876C192.553 96.595 192.342 95.9816 192.344 95.3498Z" fill="white"/>
<path d="M176.811 107.308C178.319 107.308 179.541 106.065 179.541 104.531C179.541 102.997 178.319 101.754 176.811 101.754C175.303 101.754 174.081 102.997 174.081 104.531C174.081 106.065 175.303 107.308 176.811 107.308Z" fill="#795548"/>
<path opacity="0.1" d="M176.811 107.308C178.319 107.308 179.541 106.065 179.541 104.531C179.541 102.997 178.319 101.754 176.811 101.754C175.303 101.754 174.081 102.997 174.081 104.531C174.081 106.065 175.303 107.308 176.811 107.308Z" fill="white"/>
<path opacity="0.05" d="M174.505 104.957C174.506 104.435 174.651 103.923 174.925 103.481C175.199 103.04 175.589 102.686 176.052 102.46C176.515 102.234 177.031 102.145 177.541 102.204C178.051 102.263 178.534 102.468 178.935 102.794C178.695 102.49 178.395 102.242 178.054 102.065C177.713 101.887 177.34 101.785 176.957 101.764C176.575 101.743 176.193 101.804 175.835 101.943C175.478 102.083 175.153 102.297 174.883 102.572C174.612 102.848 174.401 103.178 174.265 103.541C174.128 103.905 174.067 104.294 174.088 104.683C174.108 105.072 174.209 105.452 174.384 105.798C174.558 106.145 174.802 106.45 175.1 106.695C174.712 106.202 174.502 105.588 174.505 104.957Z" fill="white"/>
<path d="M185.418 105.814C186.926 105.814 188.148 104.571 188.148 103.037C188.148 101.503 186.926 100.26 185.418 100.26C183.911 100.26 182.688 101.503 182.688 103.037C182.688 104.571 183.911 105.814 185.418 105.814Z" fill="#795548"/>
<path opacity="0.1" d="M185.418 105.814C186.926 105.814 188.148 104.571 188.148 103.037C188.148 101.503 186.926 100.26 185.418 100.26C183.911 100.26 182.688 101.503 182.688 103.037C182.688 104.571 183.911 105.814 185.418 105.814Z" fill="white"/>
<path opacity="0.05" d="M183.11 103.465C183.109 102.942 183.254 102.43 183.528 101.987C183.801 101.545 184.192 101.19 184.655 100.964C185.118 100.738 185.635 100.65 186.145 100.709C186.656 100.769 187.139 100.974 187.54 101.301C187.3 100.997 187 100.747 186.659 100.568C186.318 100.389 185.944 100.286 185.561 100.264C185.179 100.242 184.795 100.303 184.437 100.442C184.079 100.581 183.753 100.796 183.482 101.072C183.211 101.347 183 101.678 182.863 102.043C182.726 102.407 182.666 102.797 182.687 103.186C182.708 103.576 182.809 103.957 182.985 104.303C183.16 104.65 183.406 104.956 183.705 105.2C183.318 104.708 183.107 104.095 183.11 103.465Z" fill="white"/>
<path d="M182.268 108.377C183.776 108.377 184.998 107.133 184.998 105.599C184.998 104.066 183.776 102.822 182.268 102.822C180.76 102.822 179.538 104.066 179.538 105.599C179.538 107.133 180.76 108.377 182.268 108.377Z" fill="#795548"/>
<path opacity="0.1" d="M182.268 108.377C183.776 108.377 184.998 107.133 184.998 105.599C184.998 104.066 183.776 102.822 182.268 102.822C180.76 102.822 179.538 104.066 179.538 105.599C179.538 107.133 180.76 108.377 182.268 108.377Z" fill="white"/>
<path opacity="0.05" d="M179.962 106.025C179.963 105.503 180.108 104.992 180.382 104.55C180.656 104.108 181.046 103.754 181.509 103.528C181.972 103.302 182.488 103.213 182.998 103.273C183.508 103.332 183.991 103.536 184.392 103.862C184.152 103.559 183.852 103.31 183.511 103.133C183.17 102.955 182.797 102.853 182.414 102.832C182.032 102.811 181.65 102.872 181.292 103.012C180.935 103.151 180.61 103.365 180.34 103.641C180.069 103.916 179.858 104.246 179.722 104.61C179.585 104.973 179.524 105.362 179.545 105.751C179.565 106.14 179.666 106.52 179.841 106.867C180.015 107.213 180.259 107.519 180.557 107.763C180.169 107.27 179.959 106.657 179.962 106.025Z" fill="white"/>
<path d="M171.985 110.511C173.493 110.511 174.715 109.268 174.715 107.734C174.715 106.2 173.493 104.957 171.985 104.957C170.477 104.957 169.255 106.2 169.255 107.734C169.255 109.268 170.477 110.511 171.985 110.511Z" fill="#795548"/>
<path opacity="0.1" d="M171.985 110.511C173.493 110.511 174.715 109.268 174.715 107.734C174.715 106.2 173.493 104.957 171.985 104.957C170.477 104.957 169.255 106.2 169.255 107.734C169.255 109.268 170.477 110.511 171.985 110.511Z" fill="white"/>
<path opacity="0.05" d="M169.676 108.161C169.676 107.639 169.821 107.127 170.095 106.685C170.368 106.243 170.759 105.888 171.222 105.662C171.685 105.436 172.201 105.347 172.711 105.406C173.221 105.465 173.705 105.669 174.106 105.996C173.867 105.69 173.566 105.439 173.225 105.259C172.884 105.08 172.509 104.976 172.125 104.954C171.742 104.932 171.358 104.992 170.999 105.132C170.64 105.271 170.314 105.487 170.043 105.763C169.771 106.04 169.56 106.372 169.423 106.737C169.287 107.102 169.228 107.493 169.25 107.883C169.272 108.273 169.375 108.655 169.552 109.002C169.729 109.348 169.976 109.653 170.277 109.897C169.888 109.405 169.676 108.793 169.676 108.161Z" fill="white"/>
<path d="M174.712 108.377C176.22 108.377 177.442 107.133 177.442 105.599C177.442 104.066 176.22 102.822 174.712 102.822C173.205 102.822 171.982 104.066 171.982 105.599C171.982 107.133 173.205 108.377 174.712 108.377Z" fill="#795548"/>
<path opacity="0.1" d="M174.712 108.377C176.22 108.377 177.442 107.133 177.442 105.599C177.442 104.066 176.22 102.822 174.712 102.822C173.205 102.822 171.982 104.066 171.982 105.599C171.982 107.133 173.205 108.377 174.712 108.377Z" fill="white"/>
<path opacity="0.05" d="M172.404 106.026C172.404 105.503 172.55 104.992 172.824 104.55C173.097 104.109 173.488 103.754 173.951 103.528C174.413 103.302 174.929 103.214 175.439 103.273C175.949 103.332 176.433 103.536 176.833 103.862C176.594 103.558 176.294 103.308 175.953 103.13C175.612 102.951 175.237 102.848 174.854 102.826C174.471 102.805 174.088 102.866 173.73 103.005C173.372 103.145 173.047 103.36 172.776 103.636C172.505 103.912 172.294 104.243 172.157 104.607C172.02 104.972 171.96 105.361 171.982 105.751C172.003 106.14 172.105 106.521 172.281 106.868C172.456 107.215 172.702 107.52 173.002 107.763C172.613 107.271 172.401 106.657 172.404 106.026Z" fill="white"/>
<path d="M174.712 103.679C176.22 103.679 177.442 102.436 177.442 100.902C177.442 99.3684 176.22 98.125 174.712 98.125C173.205 98.125 171.982 99.3684 171.982 100.902C171.982 102.436 173.205 103.679 174.712 103.679Z" fill="#795548"/>
<path opacity="0.1" d="M174.712 103.679C176.22 103.679 177.442 102.436 177.442 100.902C177.442 99.3684 176.22 98.125 174.712 98.125C173.205 98.125 171.982 99.3684 171.982 100.902C171.982 102.436 173.205 103.679 174.712 103.679Z" fill="white"/>
<path opacity="0.05" d="M172.403 101.33C172.402 100.808 172.547 100.295 172.821 99.8531C173.094 99.4106 173.485 99.0559 173.948 98.8297C174.411 98.6036 174.928 98.5152 175.438 98.5749C175.949 98.6346 176.432 98.8399 176.833 99.167C176.594 98.861 176.294 98.6099 175.952 98.4301C175.611 98.2503 175.237 98.1458 174.853 98.1236C174.469 98.1014 174.085 98.1619 173.726 98.3012C173.367 98.4404 173.041 98.6553 172.769 98.9317C172.498 99.2081 172.287 99.5398 172.15 99.9051C172.013 100.27 171.953 100.661 171.975 101.051C171.997 101.441 172.1 101.823 172.276 102.17C172.453 102.517 172.7 102.822 173.001 103.065C172.612 102.573 172.401 101.961 172.403 101.33Z" fill="white"/>
<path d="M179.961 99.4078C181.469 99.4078 182.691 98.1644 182.691 96.6307C182.691 95.0969 181.469 93.8535 179.961 93.8535C178.454 93.8535 177.231 95.0969 177.231 96.6307C177.231 98.1644 178.454 99.4078 179.961 99.4078Z" fill="#795548"/>
<path opacity="0.1" d="M179.961 99.4078C181.469 99.4078 182.691 98.1644 182.691 96.6307C182.691 95.0969 181.469 93.8535 179.961 93.8535C178.454 93.8535 177.231 95.0969 177.231 96.6307C177.231 98.1644 178.454 99.4078 179.961 99.4078Z" fill="white"/>
<path opacity="0.05" d="M177.652 97.0591C177.653 96.5367 177.798 96.025 178.071 95.5829C178.345 95.1407 178.735 94.7861 179.198 94.5598C179.661 94.3335 180.177 94.2447 180.688 94.3037C181.198 94.3627 181.681 94.567 182.082 94.8932C181.842 94.59 181.542 94.3416 181.201 94.1641C180.861 93.9867 180.487 93.8842 180.105 93.8634C179.723 93.8425 179.34 93.9037 178.983 94.043C178.625 94.1823 178.301 94.3966 178.03 94.672C177.76 94.9473 177.549 95.2775 177.412 95.6411C177.275 96.0047 177.215 96.3936 177.235 96.7824C177.256 97.1712 177.357 97.5513 177.531 97.8979C177.705 98.2445 177.95 98.5499 178.248 98.7941C177.86 98.3021 177.65 97.6897 177.652 97.0591Z" fill="white"/>
<path d="M189.196 109.873C190.704 109.873 191.926 108.629 191.926 107.096C191.926 105.562 190.704 104.318 189.196 104.318C187.688 104.318 186.466 105.562 186.466 107.096C186.466 108.629 187.688 109.873 189.196 109.873Z" fill="#795548"/>
<path opacity="0.1" d="M189.196 109.873C190.704 109.873 191.926 108.629 191.926 107.096C191.926 105.562 190.704 104.318 189.196 104.318C187.688 104.318 186.466 105.562 186.466 107.096C186.466 108.629 187.688 109.873 189.196 109.873Z" fill="white"/>
<path opacity="0.05" d="M186.887 107.52C186.888 106.998 187.033 106.486 187.307 106.044C187.581 105.603 187.971 105.249 188.434 105.023C188.897 104.797 189.413 104.708 189.923 104.767C190.433 104.826 190.916 105.031 191.317 105.357C191.077 105.052 190.777 104.802 190.436 104.624C190.095 104.445 189.721 104.342 189.338 104.321C188.955 104.299 188.572 104.36 188.214 104.5C187.855 104.639 187.53 104.854 187.259 105.13C186.988 105.406 186.777 105.737 186.64 106.101C186.504 106.466 186.444 106.855 186.465 107.245C186.486 107.635 186.588 108.015 186.764 108.362C186.94 108.709 187.185 109.014 187.485 109.258C187.096 108.765 186.885 108.152 186.887 107.52Z" fill="white"/>
<path d="M196.751 101.33C198.259 101.33 199.481 100.086 199.481 98.5525C199.481 97.0188 198.259 95.7754 196.751 95.7754C195.244 95.7754 194.021 97.0188 194.021 98.5525C194.021 100.086 195.244 101.33 196.751 101.33Z" fill="#795548"/>
<path opacity="0.1" d="M196.751 101.33C198.259 101.33 199.481 100.086 199.481 98.5525C199.481 97.0188 198.259 95.7754 196.751 95.7754C195.244 95.7754 194.021 97.0188 194.021 98.5525C194.021 100.086 195.244 101.33 196.751 101.33Z" fill="white"/>
<path opacity="0.05" d="M194.442 98.9811C194.442 98.4585 194.587 97.9464 194.86 97.504C195.134 97.0615 195.525 96.7068 195.988 96.4806C196.451 96.2544 196.968 96.1661 197.478 96.2258C197.988 96.2855 198.472 96.4908 198.872 96.8179C198.635 96.505 198.336 96.2471 197.993 96.0615C197.65 95.8759 197.272 95.767 196.885 95.7419C196.497 95.7169 196.109 95.7763 195.746 95.9162C195.383 96.0561 195.053 96.2732 194.779 96.5532C194.505 96.8331 194.293 97.1693 194.157 97.5393C194.021 97.9093 193.964 98.3046 193.991 98.6987C194.017 99.0928 194.126 99.4767 194.31 99.8246C194.494 100.172 194.748 100.476 195.057 100.716C194.662 100.227 194.445 99.614 194.442 98.9811Z" fill="white"/>
<path d="M196.751 88.5191C198.259 88.5191 199.481 87.2758 199.481 85.742C199.481 84.2082 198.259 82.9648 196.751 82.9648C195.244 82.9648 194.021 84.2082 194.021 85.742C194.021 87.2758 195.244 88.5191 196.751 88.5191Z" fill="#795548"/>
<path opacity="0.1" d="M196.751 88.5191C198.259 88.5191 199.481 87.2758 199.481 85.742C199.481 84.2082 198.259 82.9648 196.751 82.9648C195.244 82.9648 194.021 84.2082 194.021 85.742C194.021 87.2758 195.244 88.5191 196.751 88.5191Z" fill="white"/>
<path opacity="0.05" d="M194.442 86.1675C194.443 85.6454 194.588 85.1341 194.862 84.6923C195.136 84.2506 195.526 83.8964 195.989 83.6704C196.452 83.4445 196.968 83.3559 197.478 83.415C197.988 83.4741 198.471 83.6784 198.872 84.0044C198.634 83.6927 198.334 83.4361 197.992 83.2517C197.649 83.0673 197.272 82.9593 196.885 82.935C196.498 82.9106 196.11 82.9705 195.748 83.1106C195.385 83.2506 195.057 83.4677 194.783 83.7473C194.51 84.0268 194.298 84.3625 194.162 84.7318C194.026 85.1012 193.969 85.4958 193.995 85.8893C194.021 86.2827 194.129 86.6661 194.312 87.0137C194.495 87.3614 194.749 87.6654 195.057 87.9054C194.662 87.4151 194.445 86.8014 194.442 86.1675Z" fill="white"/>
<path d="M199.482 93.857C200.99 93.857 202.212 92.6137 202.212 91.0799C202.212 89.5461 200.99 88.3027 199.482 88.3027C197.974 88.3027 196.752 89.5461 196.752 91.0799C196.752 92.6137 197.974 93.857 199.482 93.857Z" fill="#795548"/>
<path opacity="0.1" d="M199.482 93.857C200.99 93.857 202.212 92.6137 202.212 91.0799C202.212 89.5461 200.99 88.3027 199.482 88.3027C197.974 88.3027 196.752 89.5461 196.752 91.0799C196.752 92.6137 197.974 93.857 199.482 93.857Z" fill="white"/>
<path opacity="0.05" d="M197.172 91.5083C197.172 90.9859 197.317 90.4742 197.591 90.0321C197.864 89.5899 198.255 89.2353 198.718 89.009C199.181 88.7827 199.697 88.6939 200.207 88.7529C200.717 88.8119 201.201 89.0162 201.602 89.3424C201.362 89.0392 201.062 88.7908 200.721 88.6133C200.38 88.4359 200.007 88.3334 199.624 88.3126C199.242 88.2917 198.86 88.3529 198.502 88.4922C198.145 88.6315 197.82 88.8458 197.55 89.1212C197.279 89.3965 197.068 89.7267 196.932 90.0903C196.795 90.4539 196.734 90.8428 196.755 91.2316C196.775 91.6204 196.876 92.0005 197.051 92.3471C197.225 92.6937 197.469 92.9991 197.767 93.2434C197.38 92.7513 197.17 92.1389 197.172 91.5083Z" fill="white"/>
<path d="M202.208 97.9137C203.716 97.9137 204.938 96.6703 204.938 95.1365C204.938 93.6027 203.716 92.3594 202.208 92.3594C200.701 92.3594 199.479 93.6027 199.479 95.1365C199.479 96.6703 200.701 97.9137 202.208 97.9137Z" fill="#795548"/>
<path opacity="0.1" d="M202.208 97.9137C203.716 97.9137 204.938 96.6703 204.938 95.1365C204.938 93.6027 203.716 92.3594 202.208 92.3594C200.701 92.3594 199.479 93.6027 199.479 95.1365C199.479 96.6703 200.701 97.9137 202.208 97.9137Z" fill="white"/>
<path opacity="0.05" d="M199.9 95.5606C199.899 95.038 200.044 94.526 200.318 94.0835C200.591 93.6411 200.982 93.2863 201.445 93.0602C201.908 92.834 202.425 92.7457 202.935 92.8054C203.446 92.8651 203.929 93.0703 204.33 93.3975C204.091 93.0915 203.791 92.8404 203.45 92.6606C203.108 92.4808 202.734 92.3763 202.35 92.3541C201.966 92.3319 201.582 92.3924 201.223 92.5317C200.864 92.6709 200.538 92.8858 200.267 93.1622C199.995 93.4386 199.784 93.7703 199.647 94.1356C199.51 94.5008 199.45 94.8914 199.472 95.2816C199.494 95.6719 199.597 96.0531 199.773 96.4002C199.95 96.7472 200.197 97.0524 200.498 97.2957C200.109 96.8042 199.898 96.1916 199.9 95.5606Z" fill="white"/>
<path d="M189.196 93.2184C190.704 93.2184 191.926 91.975 191.926 90.4412C191.926 88.9074 190.704 87.6641 189.196 87.6641C187.688 87.6641 186.466 88.9074 186.466 90.4412C186.466 91.975 187.688 93.2184 189.196 93.2184Z" fill="#795548"/>
<path opacity="0.1" d="M189.196 93.2184C190.704 93.2184 191.926 91.975 191.926 90.4412C191.926 88.9074 190.704 87.6641 189.196 87.6641C187.688 87.6641 186.466 88.9074 186.466 90.4412C186.466 91.975 187.688 93.2184 189.196 93.2184Z" fill="white"/>
<path opacity="0.05" d="M186.887 90.8654C186.888 90.3432 187.033 89.8319 187.307 89.3902C187.581 88.9484 187.971 88.5942 188.434 88.3683C188.897 88.1423 189.413 88.0538 189.923 88.1129C190.433 88.172 190.916 88.3763 191.317 88.7023C191.077 88.3977 190.777 88.1481 190.436 87.9695C190.095 87.791 189.721 87.6877 189.338 87.6663C188.955 87.6449 188.572 87.7059 188.214 87.8453C187.855 87.9847 187.53 88.1994 187.259 88.4754C186.988 88.7514 186.777 89.0824 186.64 89.4469C186.504 89.8114 186.444 90.2011 186.465 90.5907C186.486 90.9802 186.588 91.3608 186.764 91.7076C186.94 92.0544 187.185 92.3596 187.485 92.6032C187.096 92.1107 186.885 91.4972 186.887 90.8654Z" fill="white"/>
<path d="M181.011 95.3531C182.519 95.3531 183.741 94.1098 183.741 92.576C183.741 91.0422 182.519 89.7988 181.011 89.7988C179.504 89.7988 178.281 91.0422 178.281 92.576C178.281 94.1098 179.504 95.3531 181.011 95.3531Z" fill="#795548"/>
<path opacity="0.1" d="M181.011 95.3531C182.519 95.3531 183.741 94.1098 183.741 92.576C183.741 91.0422 182.519 89.7988 181.011 89.7988C179.504 89.7988 178.281 91.0422 178.281 92.576C178.281 94.1098 179.504 95.3531 181.011 95.3531Z" fill="white"/>
<path opacity="0.05" d="M178.702 93.0016C178.703 92.4795 178.849 91.9681 179.122 91.5264C179.396 91.0846 179.787 90.7304 180.249 90.5045C180.712 90.2785 181.228 90.19 181.738 90.2491C182.248 90.3082 182.731 90.5125 183.132 90.8385C182.892 90.5353 182.592 90.2869 182.251 90.1094C181.91 89.932 181.537 89.8295 181.155 89.8087C180.772 89.7878 180.39 89.849 180.033 89.9883C179.675 90.1276 179.351 90.3419 179.08 90.6173C178.809 90.8926 178.599 91.2228 178.462 91.5864C178.325 91.95 178.265 92.3389 178.285 92.7277C178.306 93.1165 178.406 93.4966 178.581 93.8432C178.755 94.1898 178.999 94.4952 179.297 94.7395C178.909 94.2466 178.699 93.6331 178.702 93.0016Z" fill="white"/>
<path d="M186.258 92.15C187.766 92.15 188.988 90.9066 188.988 89.3729C188.988 87.8391 187.766 86.5957 186.258 86.5957C184.751 86.5957 183.528 87.8391 183.528 89.3729C183.528 90.9066 184.751 92.15 186.258 92.15Z" fill="#795548"/>
<path opacity="0.1" d="M186.258 92.15C187.766 92.15 188.988 90.9066 188.988 89.3729C188.988 87.8391 187.766 86.5957 186.258 86.5957C184.751 86.5957 183.528 87.8391 183.528 89.3729C183.528 90.9066 184.751 92.15 186.258 92.15Z" fill="white"/>
<path opacity="0.05" d="M183.948 89.7985C183.949 89.2764 184.095 88.765 184.368 88.3233C184.642 87.8815 185.033 87.5273 185.495 87.3014C185.958 87.0754 186.474 86.9869 186.984 87.046C187.494 87.1051 187.977 87.3093 188.378 87.6354C188.138 87.3321 187.838 87.0837 187.497 86.9063C187.157 86.7289 186.783 86.6264 186.401 86.6055C186.018 86.5847 185.636 86.6459 185.279 86.7852C184.921 86.9245 184.597 87.1388 184.326 87.4141C184.055 87.6895 183.845 88.0197 183.708 88.3833C183.571 88.7469 183.511 89.1358 183.531 89.5246C183.552 89.9134 183.652 90.2935 183.827 90.6401C184.001 90.9867 184.246 91.292 184.544 91.5363C184.155 91.0435 183.945 90.43 183.948 89.7985Z" fill="white"/>
<path d="M191.084 89.8004C192.592 89.8004 193.814 88.557 193.814 87.0232C193.814 85.4895 192.592 84.2461 191.084 84.2461C189.577 84.2461 188.354 85.4895 188.354 87.0232C188.354 88.557 189.577 89.8004 191.084 89.8004Z" fill="#795548"/>
<path opacity="0.1" d="M191.084 89.8004C192.592 89.8004 193.814 88.557 193.814 87.0232C193.814 85.4895 192.592 84.2461 191.084 84.2461C189.577 84.2461 188.354 85.4895 188.354 87.0232C188.354 88.557 189.577 89.8004 191.084 89.8004Z" fill="white"/>
<path opacity="0.05" d="M188.775 87.4489C188.777 86.9272 188.923 86.4166 189.197 85.9755C189.471 85.5345 189.862 85.1808 190.324 84.955C190.786 84.7293 191.302 84.6406 191.811 84.6991C192.321 84.7576 192.804 84.9609 193.205 85.2858C192.965 84.9825 192.665 84.7341 192.324 84.5567C191.984 84.3793 191.61 84.2768 191.228 84.2559C190.846 84.2351 190.463 84.2963 190.106 84.4356C189.749 84.5749 189.424 84.7892 189.153 85.0645C188.883 85.3399 188.672 85.6701 188.535 86.0337C188.398 86.3973 188.338 86.7861 188.358 87.175C188.379 87.5638 188.48 87.9439 188.654 88.2905C188.828 88.6371 189.073 88.9424 189.371 89.1867C188.983 88.6938 188.773 88.0804 188.775 87.4489Z" fill="white"/>
<path d="M177.442 92.15C178.95 92.15 180.172 90.9066 180.172 89.3729C180.172 87.8391 178.95 86.5957 177.442 86.5957C175.934 86.5957 174.712 87.8391 174.712 89.3729C174.712 90.9066 175.934 92.15 177.442 92.15Z" fill="#795548"/>
<path opacity="0.1" d="M177.442 92.15C178.95 92.15 180.172 90.9066 180.172 89.3729C180.172 87.8391 178.95 86.5957 177.442 86.5957C175.934 86.5957 174.712 87.8391 174.712 89.3729C174.712 90.9066 175.934 92.15 177.442 92.15Z" fill="white"/>
<path opacity="0.05" d="M175.122 89.7985C175.123 89.2764 175.268 88.765 175.542 88.3233C175.816 87.8815 176.206 87.5273 176.669 87.3014C177.132 87.0754 177.648 86.9869 178.158 87.046C178.668 87.1051 179.151 87.3093 179.552 87.6354C179.312 87.3321 179.012 87.0837 178.671 86.9063C178.33 86.7289 177.957 86.6264 177.575 86.6055C177.192 86.5847 176.81 86.6459 176.453 86.7852C176.095 86.9245 175.771 87.1388 175.5 87.4141C175.229 87.6895 175.019 88.0197 174.882 88.3833C174.745 88.7469 174.685 89.1358 174.705 89.5246C174.726 89.9134 174.826 90.2935 175.001 90.6401C175.175 90.9867 175.419 91.292 175.717 91.5363C175.33 91.0428 175.12 90.4298 175.122 89.7985Z" fill="white"/>
<path d="M187.096 101.115C188.604 101.115 189.826 99.8715 189.826 98.3377C189.826 96.8039 188.604 95.5605 187.096 95.5605C185.588 95.5605 184.366 96.8039 184.366 98.3377C184.366 99.8715 185.588 101.115 187.096 101.115Z" fill="#795548"/>
<path opacity="0.1" d="M187.096 101.115C188.604 101.115 189.826 99.8715 189.826 98.3377C189.826 96.8039 188.604 95.5605 187.096 95.5605C185.588 95.5605 184.366 96.8039 184.366 98.3377C184.366 99.8715 185.588 101.115 187.096 101.115Z" fill="white"/>
<path opacity="0.05" d="M184.787 98.7672C184.787 98.2446 184.932 97.7326 185.205 97.2901C185.479 96.8477 185.87 96.4929 186.333 96.2668C186.796 96.0406 187.312 95.9523 187.823 96.012C188.333 96.0717 188.817 96.2769 189.217 96.6041C188.977 96.3009 188.677 96.0525 188.336 95.8751C187.995 95.6976 187.622 95.5952 187.24 95.5743C186.857 95.5534 186.475 95.6146 186.118 95.754C185.76 95.8933 185.436 96.1076 185.165 96.3829C184.894 96.6582 184.684 96.9884 184.547 97.352C184.41 97.7156 184.35 98.1045 184.37 98.4933C184.391 98.8821 184.491 99.2622 184.666 99.6088C184.84 99.9554 185.084 100.261 185.382 100.505C184.996 100.011 184.786 99.3985 184.787 98.7672Z" fill="white"/>
<path d="M175.554 100.904C177.062 100.904 178.284 99.6605 178.284 98.1268C178.284 96.593 177.062 95.3496 175.554 95.3496C174.046 95.3496 172.824 96.593 172.824 98.1268C172.824 99.6605 174.046 100.904 175.554 100.904Z" fill="#795548"/>
<path opacity="0.1" d="M175.554 100.904C177.062 100.904 178.284 99.6605 178.284 98.1268C178.284 96.593 177.062 95.3496 175.554 95.3496C174.046 95.3496 172.824 96.593 172.824 98.1268C172.824 99.6605 174.046 100.904 175.554 100.904Z" fill="white"/>
<path opacity="0.05" d="M173.245 98.5524C173.246 98.0302 173.391 97.5189 173.665 97.0772C173.939 96.6354 174.33 96.2812 174.792 96.0553C175.255 95.8293 175.771 95.7408 176.281 95.7999C176.791 95.859 177.274 96.0633 177.675 96.3893C177.435 96.0861 177.135 95.8377 176.794 95.6602C176.453 95.4828 176.08 95.3803 175.698 95.3595C175.315 95.3386 174.933 95.3998 174.576 95.5391C174.218 95.6784 173.894 95.8927 173.623 96.1681C173.352 96.4434 173.142 96.7736 173.005 97.1372C172.868 97.5008 172.808 97.8897 172.828 98.2785C172.849 98.6673 172.949 99.0474 173.124 99.394C173.298 99.7406 173.542 100.046 173.84 100.29C173.452 99.7974 173.242 99.1839 173.245 98.5524Z" fill="white"/>
<path d="M193.182 104.961C194.69 104.961 195.912 103.717 195.912 102.183C195.912 100.65 194.69 99.4062 193.182 99.4062C191.674 99.4062 190.452 100.65 190.452 102.183C190.452 103.717 191.674 104.961 193.182 104.961Z" fill="#795548"/>
<path opacity="0.1" d="M193.182 104.961C194.69 104.961 195.912 103.717 195.912 102.183C195.912 100.65 194.69 99.4062 193.182 99.4062C191.674 99.4062 190.452 100.65 190.452 102.183C190.452 103.717 191.674 104.961 193.182 104.961Z" fill="white"/>
<path opacity="0.05" d="M190.876 102.602C190.876 102.08 191.021 101.568 191.295 101.126C191.568 100.684 191.959 100.329 192.422 100.103C192.885 99.8765 193.401 99.7877 193.911 99.8467C194.421 99.9057 194.905 100.11 195.306 100.436C195.066 100.133 194.766 99.8845 194.425 99.7071C194.084 99.5297 193.711 99.4272 193.328 99.4063C192.946 99.3855 192.564 99.4467 192.207 99.586C191.849 99.7253 191.525 99.9396 191.254 100.215C190.983 100.49 190.773 100.82 190.636 101.184C190.499 101.548 190.438 101.937 190.459 102.325C190.48 102.714 190.58 103.094 190.755 103.441C190.929 103.787 191.173 104.093 191.471 104.337C191.084 103.845 190.874 103.233 190.876 102.602Z" fill="white"/>
<path d="M197.382 106.455C198.89 106.455 200.112 105.211 200.112 103.678C200.112 102.144 198.89 100.9 197.382 100.9C195.875 100.9 194.652 102.144 194.652 103.678C194.652 105.211 195.875 106.455 197.382 106.455Z" fill="#795548"/>
<path opacity="0.1" d="M197.382 106.455C198.89 106.455 200.112 105.211 200.112 103.678C200.112 102.144 198.89 100.9 197.382 100.9C195.875 100.9 194.652 102.144 194.652 103.678C194.652 105.211 195.875 106.455 197.382 106.455Z" fill="white"/>
<path opacity="0.05" d="M195.073 104.103C195.074 103.581 195.22 103.07 195.493 102.628C195.767 102.186 196.158 101.832 196.62 101.606C197.083 101.38 197.599 101.292 198.109 101.351C198.619 101.41 199.102 101.614 199.503 101.94C199.263 101.637 198.963 101.388 198.622 101.211C198.282 101.034 197.908 100.931 197.526 100.91C197.143 100.889 196.761 100.951 196.404 101.09C196.046 101.229 195.722 101.444 195.451 101.719C195.18 101.994 194.97 102.324 194.833 102.688C194.696 103.052 194.636 103.44 194.656 103.829C194.677 104.218 194.777 104.598 194.952 104.945C195.126 105.291 195.371 105.597 195.669 105.841C195.28 105.348 195.07 104.735 195.073 104.103Z" fill="white"/>
<path d="M200.949 109.23C202.456 109.23 203.679 107.987 203.679 106.453C203.679 104.919 202.456 103.676 200.949 103.676C199.441 103.676 198.219 104.919 198.219 106.453C198.219 107.987 199.441 109.23 200.949 109.23Z" fill="#795548"/>
<path opacity="0.1" d="M200.949 109.23C202.456 109.23 203.679 107.987 203.679 106.453C203.679 104.919 202.456 103.676 200.949 103.676C199.441 103.676 198.219 104.919 198.219 106.453C198.219 107.987 199.441 109.23 200.949 109.23Z" fill="white"/>
<path opacity="0.05" d="M198.64 106.881C198.641 106.358 198.786 105.847 199.06 105.405C199.334 104.964 199.724 104.609 200.187 104.384C200.65 104.158 201.166 104.069 201.676 104.128C202.186 104.187 202.669 104.392 203.07 104.718C202.831 104.413 202.531 104.163 202.19 103.984C201.849 103.805 201.475 103.702 201.092 103.68C200.709 103.658 200.326 103.719 199.967 103.858C199.609 103.997 199.284 104.212 199.012 104.488C198.741 104.763 198.53 105.094 198.393 105.459C198.256 105.823 198.196 106.213 198.217 106.602C198.238 106.992 198.34 107.373 198.515 107.72C198.691 108.066 198.936 108.372 199.235 108.616C198.848 108.124 198.638 107.511 198.64 106.881Z" fill="white"/>
<path d="M206.827 105.599C208.334 105.599 209.557 104.356 209.557 102.822C209.557 101.288 208.334 100.045 206.827 100.045C205.319 100.045 204.097 101.288 204.097 102.822C204.097 104.356 205.319 105.599 206.827 105.599Z" fill="#795548"/>
<path opacity="0.1" d="M206.827 105.599C208.334 105.599 209.557 104.356 209.557 102.822C209.557 101.288 208.334 100.045 206.827 100.045C205.319 100.045 204.097 101.288 204.097 102.822C204.097 104.356 205.319 105.599 206.827 105.599Z" fill="white"/>
<path opacity="0.05" d="M204.518 103.25C204.517 102.727 204.662 102.215 204.936 101.773C205.209 101.33 205.6 100.975 206.063 100.749C206.526 100.523 207.043 100.435 207.553 100.494C208.064 100.554 208.547 100.759 208.948 101.087C208.707 100.783 208.407 100.535 208.067 100.357C207.726 100.18 207.352 100.078 206.97 100.057C206.588 100.036 206.206 100.097 205.848 100.236C205.491 100.376 205.166 100.59 204.895 100.865C204.625 101.141 204.414 101.471 204.277 101.834C204.14 102.198 204.08 102.587 204.101 102.976C204.121 103.365 204.222 103.745 204.396 104.091C204.571 104.438 204.815 104.743 205.113 104.987C204.726 104.494 204.516 103.881 204.518 103.25Z" fill="white"/>
<path d="M203.678 102.396C205.186 102.396 206.408 101.153 206.408 99.619C206.408 98.0852 205.186 96.8418 203.678 96.8418C202.17 96.8418 200.948 98.0852 200.948 99.619C200.948 101.153 202.17 102.396 203.678 102.396Z" fill="#795548"/>
<path opacity="0.1" d="M203.678 102.396C205.186 102.396 206.408 101.153 206.408 99.619C206.408 98.0852 205.186 96.8418 203.678 96.8418C202.17 96.8418 200.948 98.0852 200.948 99.619C200.948 101.153 202.17 102.396 203.678 102.396Z" fill="white"/>
<path opacity="0.05" d="M201.37 100.049C201.369 99.5259 201.514 99.0138 201.788 98.5714C202.061 98.129 202.452 97.7742 202.915 97.5481C203.378 97.3219 203.895 97.2336 204.405 97.2933C204.916 97.353 205.399 97.5582 205.8 97.8854C205.562 97.5746 205.262 97.3189 204.92 97.1351C204.578 96.9514 204.201 96.8439 203.815 96.8197C203.428 96.7955 203.041 96.8553 202.679 96.9949C202.318 97.1346 201.989 97.3511 201.716 97.6299C201.443 97.9087 201.231 98.2434 201.095 98.6119C200.958 98.9804 200.901 99.3742 200.926 99.7671C200.95 100.16 201.057 100.543 201.239 100.891C201.42 101.238 201.673 101.543 201.979 101.784C201.587 101.293 201.372 100.681 201.37 100.049Z" fill="white"/>
<path d="M184.367 84.8883C185.874 84.8883 187.097 83.6449 187.097 82.1111C187.097 80.5774 185.874 79.334 184.367 79.334C182.859 79.334 181.637 80.5774 181.637 82.1111C181.637 83.6449 182.859 84.8883 184.367 84.8883Z" fill="#795548"/>
<path opacity="0.1" d="M184.367 84.8883C185.874 84.8883 187.097 83.6449 187.097 82.1111C187.097 80.5774 185.874 79.334 184.367 79.334C182.859 79.334 181.637 80.5774 181.637 82.1111C181.637 83.6449 182.859 84.8883 184.367 84.8883Z" fill="white"/>
<path opacity="0.05" d="M182.061 82.5396C182.061 82.0172 182.206 81.5055 182.479 81.0633C182.753 80.6212 183.144 80.2666 183.606 80.0403C184.069 79.814 184.585 79.7252 185.096 79.7842C185.606 79.8432 186.089 80.0475 186.491 80.3736C186.25 80.0704 185.95 79.822 185.61 79.6446C185.269 79.4672 184.895 79.3647 184.513 79.3438C184.131 79.323 183.749 79.3842 183.391 79.5235C183.034 79.6628 182.709 79.8771 182.438 80.1524C182.168 80.4278 181.957 80.758 181.82 81.1216C181.683 81.4852 181.623 81.874 181.644 82.2629C181.664 82.6517 181.765 83.0317 181.939 83.3783C182.114 83.725 182.358 84.0303 182.656 84.2746C182.268 83.7825 182.058 83.1702 182.061 82.5396Z" fill="white"/>
<path d="M173.453 97.273C174.96 97.273 176.183 96.0297 176.183 94.4959C176.183 92.9621 174.96 91.7188 173.453 91.7188C171.945 91.7188 170.723 92.9621 170.723 94.4959C170.723 96.0297 171.945 97.273 173.453 97.273Z" fill="#795548"/>
<path opacity="0.1" d="M173.453 97.273C174.96 97.273 176.183 96.0297 176.183 94.4959C176.183 92.9621 174.96 91.7188 173.453 91.7188C171.945 91.7188 170.723 92.9621 170.723 94.4959C170.723 96.0297 171.945 97.273 173.453 97.273Z" fill="white"/>
<path opacity="0.05" d="M171.146 94.9215C171.146 94.3994 171.292 93.8881 171.566 93.4463C171.839 93.0046 172.23 92.6504 172.693 92.4244C173.155 92.1985 173.671 92.1099 174.181 92.169C174.691 92.2281 175.175 92.4324 175.576 92.7584C175.335 92.4552 175.035 92.2068 174.694 92.0294C174.354 91.8519 173.98 91.7495 173.598 91.7286C173.216 91.7077 172.833 91.7689 172.476 91.9083C172.119 92.0476 171.794 92.2619 171.523 92.5372C171.253 92.8125 171.042 93.1427 170.905 93.5063C170.768 93.8699 170.708 94.2588 170.729 94.6476C170.749 95.0364 170.85 95.4165 171.024 95.7631C171.199 96.1097 171.443 96.4151 171.741 96.6594C171.353 96.1665 171.143 95.5531 171.146 94.9215Z" fill="white"/>
<path d="M169.255 105.173C170.763 105.173 171.985 103.93 171.985 102.396C171.985 100.863 170.763 99.6191 169.255 99.6191C167.748 99.6191 166.525 100.863 166.525 102.396C166.525 103.93 167.748 105.173 169.255 105.173Z" fill="#795548"/>
<path opacity="0.1" d="M169.255 105.173C170.763 105.173 171.985 103.93 171.985 102.396C171.985 100.863 170.763 99.6191 169.255 99.6191C167.748 99.6191 166.525 100.863 166.525 102.396C166.525 103.93 167.748 105.173 169.255 105.173Z" fill="white"/>
<path opacity="0.05" d="M166.946 102.822C166.947 102.3 167.092 101.789 167.366 101.347C167.64 100.905 168.03 100.551 168.493 100.325C168.956 100.099 169.472 100.011 169.982 100.07C170.492 100.129 170.975 100.333 171.376 100.659C171.134 100.36 170.833 100.115 170.492 99.9411C170.151 99.7672 169.779 99.6679 169.398 99.6496C169.017 99.6313 168.637 99.6943 168.282 99.8347C167.926 99.9751 167.604 100.19 167.335 100.465C167.066 100.74 166.857 101.069 166.721 101.431C166.585 101.793 166.526 102.181 166.546 102.568C166.566 102.955 166.666 103.334 166.839 103.679C167.012 104.025 167.254 104.33 167.55 104.574C167.156 104.079 166.942 103.46 166.946 102.822Z" fill="white"/>
<path d="M182.268 102.396C183.776 102.396 184.998 101.153 184.998 99.619C184.998 98.0852 183.776 96.8418 182.268 96.8418C180.76 96.8418 179.538 98.0852 179.538 99.619C179.538 101.153 180.76 102.396 182.268 102.396Z" fill="#795548"/>
<path opacity="0.1" d="M182.268 102.396C183.776 102.396 184.998 101.153 184.998 99.619C184.998 98.0852 183.776 96.8418 182.268 96.8418C180.76 96.8418 179.538 98.0852 179.538 99.619C179.538 101.153 180.76 102.396 182.268 102.396Z" fill="white"/>
<path opacity="0.05" d="M179.961 100.049C179.961 99.526 180.106 99.0139 180.379 98.5715C180.653 98.129 181.044 97.7743 181.507 97.5481C181.97 97.322 182.487 97.2337 182.997 97.2933C183.507 97.353 183.991 97.5583 184.391 97.8855C184.152 97.5808 183.852 97.3309 183.511 97.1521C183.17 96.9733 182.796 96.8697 182.413 96.848C182.03 96.8264 181.647 96.8871 181.289 97.0262C180.93 97.1654 180.605 97.3798 180.334 97.6556C180.062 97.9314 179.851 98.2623 179.714 98.6267C179.577 98.9911 179.517 99.3808 179.538 99.7703C179.559 100.16 179.661 100.541 179.836 100.887C180.012 101.234 180.257 101.54 180.557 101.784C180.168 101.292 179.958 100.679 179.961 100.049Z" fill="white"/>
<path d="M182.689 91.0836C184.197 91.0836 185.419 89.8402 185.419 88.3064C185.419 86.7727 184.197 85.5293 182.689 85.5293C181.181 85.5293 179.959 86.7727 179.959 88.3064C179.959 89.8402 181.181 91.0836 182.689 91.0836Z" fill="#795548"/>
<path opacity="0.1" d="M182.689 91.0836C184.197 91.0836 185.419 89.8402 185.419 88.3064C185.419 86.7727 184.197 85.5293 182.689 85.5293C181.181 85.5293 179.959 86.7727 179.959 88.3064C179.959 89.8402 181.181 91.0836 182.689 91.0836Z" fill="white"/>
<path opacity="0.05" d="M180.383 88.7301C180.384 88.208 180.529 87.6966 180.803 87.2549C181.077 86.8132 181.467 86.459 181.93 86.233C182.393 86.007 182.909 85.9185 183.419 85.9776C183.929 86.0367 184.412 86.241 184.813 86.567C184.573 86.2638 184.273 86.0154 183.932 85.838C183.591 85.6605 183.217 85.5581 182.835 85.5372C182.453 85.5163 182.071 85.5775 181.713 85.7168C181.356 85.8562 181.031 86.0705 180.761 86.3458C180.49 86.6211 180.279 86.9513 180.142 87.3149C180.005 87.6785 179.945 88.0674 179.966 88.4562C179.986 88.845 180.087 89.2251 180.261 89.5717C180.436 89.9183 180.68 90.2237 180.978 90.468C180.591 89.9745 180.381 89.3614 180.383 88.7301Z" fill="white"/>
<path d="M183.739 88.0914C185.246 88.0914 186.469 86.848 186.469 85.3143C186.469 83.7805 185.246 82.5371 183.739 82.5371C182.231 82.5371 181.009 83.7805 181.009 85.3143C181.009 86.848 182.231 88.0914 183.739 88.0914Z" fill="#795548"/>
<path opacity="0.1" d="M183.739 88.0914C185.246 88.0914 186.469 86.848 186.469 85.3143C186.469 83.7805 185.246 82.5371 183.739 82.5371C182.231 82.5371 181.009 83.7805 181.009 85.3143C181.009 86.848 182.231 88.0914 183.739 88.0914Z" fill="white"/>
<path opacity="0.05" d="M181.43 85.7428C181.429 85.2202 181.574 84.7081 181.848 84.2657C182.121 83.8232 182.512 83.4685 182.975 83.2423C183.438 83.0162 183.955 82.9279 184.465 82.9875C184.976 83.0472 185.459 83.2525 185.86 83.5797C185.623 83.2667 185.323 83.0088 184.98 82.8232C184.637 82.6377 184.259 82.5287 183.872 82.5036C183.484 82.4786 183.096 82.538 182.733 82.6779C182.37 82.8178 182.04 83.035 181.766 83.3149C181.492 83.5948 181.28 83.931 181.144 84.3011C181.008 84.6711 180.952 85.0664 180.978 85.4605C181.004 85.8546 181.113 86.2384 181.297 86.5863C181.481 86.9342 181.736 87.2382 182.044 87.4778C181.651 86.9878 181.434 86.3756 181.43 85.7428Z" fill="white"/>
<path d="M180.169 105.599C181.677 105.599 182.899 104.356 182.899 102.822C182.899 101.288 181.677 100.045 180.169 100.045C178.662 100.045 177.439 101.288 177.439 102.822C177.439 104.356 178.662 105.599 180.169 105.599Z" fill="#795548"/>
<path opacity="0.05" d="M177.86 103.25C177.861 102.728 178.007 102.216 178.28 101.774C178.554 101.333 178.945 100.978 179.407 100.753C179.87 100.527 180.386 100.438 180.896 100.497C181.406 100.556 181.889 100.761 182.29 101.087C182.05 100.783 181.75 100.535 181.409 100.357C181.069 100.18 180.695 100.078 180.313 100.057C179.931 100.036 179.548 100.097 179.191 100.236C178.833 100.376 178.509 100.59 178.238 100.865C177.968 101.141 177.757 101.471 177.62 101.834C177.483 102.198 177.423 102.587 177.443 102.976C177.464 103.365 177.565 103.745 177.739 104.091C177.913 104.438 178.158 104.743 178.456 104.987C178.068 104.494 177.858 103.881 177.86 103.25Z" fill="white"/>
<path d="M173.245 94.0719C174.752 94.0719 175.975 92.8285 175.975 91.2947C175.975 89.761 174.752 88.5176 173.245 88.5176C171.737 88.5176 170.515 89.761 170.515 91.2947C170.515 92.8285 171.737 94.0719 173.245 94.0719Z" fill="#795548"/>
<path opacity="0.05" d="M170.936 91.7184C170.936 91.1963 171.082 90.6849 171.356 90.2432C171.629 89.8014 172.02 89.4472 172.483 89.2213C172.945 88.9953 173.461 88.9068 173.971 88.9659C174.481 89.025 174.965 89.2293 175.366 89.5553C175.125 89.2521 174.825 89.0037 174.485 88.8262C174.144 88.6488 173.77 88.5463 173.388 88.5255C173.006 88.5046 172.624 88.5658 172.266 88.7051C171.909 88.8444 171.584 89.0587 171.313 89.3341C171.043 89.6094 170.832 89.9396 170.695 90.3032C170.558 90.6668 170.498 91.0557 170.519 91.4445C170.539 91.8333 170.64 92.2134 170.814 92.56C170.989 92.9066 171.233 93.212 171.531 93.4563C171.143 92.9634 170.933 92.35 170.936 91.7184Z" fill="white"/>
<path d="M176.604 102.185C178.112 102.185 179.334 100.942 179.334 99.408C179.334 97.8742 178.112 96.6309 176.604 96.6309C175.096 96.6309 173.874 97.8742 173.874 99.408C173.874 100.942 175.096 102.185 176.604 102.185Z" fill="#795548"/>
<path opacity="0.05" d="M174.291 99.8337C174.292 99.3115 174.437 98.8002 174.711 98.3584C174.985 97.9167 175.375 97.5625 175.838 97.3365C176.301 97.1106 176.817 97.022 177.327 97.0811C177.837 97.1402 178.32 97.3445 178.721 97.6705C178.481 97.3673 178.181 97.1189 177.84 96.9415C177.499 96.7641 177.126 96.6616 176.743 96.6407C176.361 96.6198 175.979 96.6811 175.622 96.8204C175.264 96.9597 174.94 97.174 174.669 97.4493C174.398 97.7246 174.188 98.0548 174.051 98.4185C173.914 98.7821 173.854 99.1709 173.874 99.5597C173.895 99.9485 173.995 100.329 174.17 100.675C174.344 101.022 174.588 101.327 174.886 101.571C174.498 101.079 174.288 100.465 174.291 99.8337Z" fill="white"/>
<path d="M186.468 82.1149C187.976 82.1149 189.198 80.8715 189.198 79.3377C189.198 77.8039 187.976 76.5605 186.468 76.5605C184.961 76.5605 183.738 77.8039 183.738 79.3377C183.738 80.8715 184.961 82.1149 186.468 82.1149Z" fill="#795548"/>
<path opacity="0.05" d="M184.159 79.7633C184.16 79.2412 184.306 78.7298 184.579 78.2881C184.853 77.8464 185.244 77.4921 185.706 77.2662C186.169 77.0402 186.685 76.9517 187.195 77.0108C187.705 77.0699 188.188 77.2742 188.589 77.6002C188.349 77.297 188.049 77.0486 187.708 76.8712C187.367 76.6937 186.994 76.5913 186.612 76.5704C186.229 76.5495 185.847 76.6107 185.49 76.75C185.132 76.8894 184.808 77.1037 184.537 77.379C184.266 77.6543 184.056 77.9845 183.919 78.3481C183.782 78.7117 183.722 79.1006 183.742 79.4894C183.763 79.8782 183.863 80.2583 184.038 80.6049C184.212 80.9515 184.456 81.2569 184.755 81.5012C184.366 81.0083 184.156 80.3949 184.159 79.7633Z" fill="white"/>
<path d="M186.258 88.3063C187.766 88.3063 188.988 87.0629 188.988 85.5291C188.988 83.9953 187.766 82.752 186.258 82.752C184.751 82.752 183.528 83.9953 183.528 85.5291C183.528 87.0629 184.751 88.3063 186.258 88.3063Z" fill="#795548"/>
<path opacity="0.05" d="M183.948 85.9556C183.949 85.4332 184.094 84.9215 184.367 84.4793C184.641 84.0372 185.031 83.6826 185.494 83.4563C185.957 83.23 186.473 83.1412 186.983 83.2002C187.494 83.2592 187.977 83.4635 188.378 83.7897C188.138 83.4864 187.838 83.238 187.497 83.0606C187.157 82.8832 186.783 82.7807 186.401 82.7598C186.018 82.739 185.636 82.8002 185.279 82.9395C184.921 83.0788 184.597 83.2931 184.326 83.5684C184.055 83.8438 183.845 84.174 183.708 84.5376C183.571 84.9012 183.511 85.2901 183.531 85.6789C183.552 86.0677 183.652 86.4478 183.827 86.7944C184.001 87.141 184.246 87.4463 184.544 87.6906C184.156 87.1985 183.946 86.5862 183.948 85.9556Z" fill="white"/>
<path d="M191.084 86.1715C192.592 86.1715 193.814 84.9281 193.814 83.3943C193.814 81.8606 192.592 80.6172 191.084 80.6172C189.577 80.6172 188.354 81.8606 188.354 83.3943C188.354 84.9281 189.577 86.1715 191.084 86.1715Z" fill="#795548"/>
<path opacity="0.05" d="M188.775 83.818C188.777 83.2963 188.923 82.7857 189.197 82.3447C189.471 81.9036 189.862 81.5499 190.324 81.3242C190.786 81.0984 191.302 81.0097 191.811 81.0682C192.321 81.1267 192.804 81.33 193.205 81.6549C192.965 81.3517 192.665 81.1033 192.324 80.9258C191.984 80.7484 191.61 80.6459 191.228 80.6251C190.846 80.6042 190.463 80.6654 190.106 80.8047C189.749 80.9441 189.424 81.1583 189.153 81.4337C188.883 81.709 188.672 82.0392 188.535 82.4028C188.398 82.7664 188.338 83.1553 188.358 83.5441C188.379 83.9329 188.48 84.313 188.654 84.6596C188.828 85.0062 189.073 85.3116 189.371 85.5559C188.983 85.0629 188.773 84.4495 188.775 83.818Z" fill="white"/>
<path d="M188.985 98.1266C190.493 98.1266 191.715 96.8832 191.715 95.3494C191.715 93.8156 190.493 92.5723 188.985 92.5723C187.477 92.5723 186.255 93.8156 186.255 95.3494C186.255 96.8832 187.477 98.1266 188.985 98.1266Z" fill="#795548"/>
<path d="M190.466 96.8707C191.974 96.8707 193.196 95.6273 193.196 94.0936C193.196 92.5598 191.974 91.3164 190.466 91.3164C188.959 91.3164 187.736 92.5598 187.736 94.0936C187.736 95.6273 188.959 96.8707 190.466 96.8707Z" fill="#795548"/>
<path opacity="0.05" d="M186.676 95.7775C186.676 95.2548 186.821 94.7428 187.094 94.3003C187.368 93.8579 187.759 93.5031 188.222 93.277C188.685 93.0508 189.201 92.9625 189.712 93.0222C190.222 93.0819 190.706 93.2872 191.106 93.6143C190.867 93.3083 190.567 93.0572 190.226 92.8774C189.885 92.6976 189.51 92.5931 189.126 92.5709C188.743 92.5487 188.359 92.6092 188 92.7484C187.641 92.8877 187.315 93.1026 187.043 93.379C186.771 93.6554 186.56 93.9871 186.423 94.3523C186.286 94.7176 186.227 95.1082 186.249 95.4984C186.27 95.8887 186.373 96.2699 186.55 96.617C186.727 96.9641 186.973 97.2692 187.274 97.5125C186.886 97.0208 186.675 96.4084 186.676 95.7775Z" fill="white"/>
<path d="M187.518 105.814C189.026 105.814 190.248 104.571 190.248 103.037C190.248 101.503 189.026 100.26 187.518 100.26C186.01 100.26 184.788 101.503 184.788 103.037C184.788 104.571 186.01 105.814 187.518 105.814Z" fill="#795548"/>
<path opacity="0.05" d="M185.208 103.465C185.208 102.942 185.353 102.43 185.626 101.987C185.9 101.545 186.291 101.19 186.754 100.964C187.217 100.738 187.734 100.65 188.244 100.709C188.754 100.769 189.238 100.974 189.638 101.301C189.399 100.997 189.099 100.747 188.758 100.568C188.417 100.389 188.043 100.286 187.66 100.264C187.277 100.242 186.894 100.303 186.536 100.442C186.177 100.581 185.852 100.796 185.581 101.072C185.309 101.347 185.098 101.678 184.961 102.043C184.824 102.407 184.764 102.797 184.785 103.186C184.806 103.576 184.908 103.957 185.083 104.303C185.259 104.65 185.504 104.956 185.804 105.2C185.416 104.708 185.206 104.095 185.208 103.465Z" fill="white"/>
<path d="M188.567 100.261C190.075 100.261 191.297 99.018 191.297 97.4842C191.297 95.9504 190.075 94.707 188.567 94.707C187.059 94.707 185.837 95.9504 185.837 97.4842C185.837 99.018 187.059 100.261 188.567 100.261Z" fill="#795548"/>
<path opacity="0.05" d="M186.258 97.9138C186.258 97.3912 186.403 96.8792 186.676 96.4367C186.95 95.9943 187.341 95.6395 187.804 95.4134C188.267 95.1872 188.783 95.0989 189.294 95.1586C189.804 95.2183 190.288 95.4235 190.688 95.7507C190.449 95.446 190.149 95.1961 189.808 95.0173C189.467 94.8386 189.093 94.735 188.71 94.7133C188.327 94.6916 187.944 94.7523 187.586 94.8915C187.227 95.0306 186.902 95.2451 186.631 95.5209C186.359 95.7966 186.148 96.1275 186.011 96.4919C185.874 96.8563 185.814 97.246 185.835 97.6356C185.856 98.0251 185.958 98.4058 186.133 98.7527C186.309 99.0996 186.554 99.405 186.854 99.6489C186.466 99.1568 186.256 98.5444 186.258 97.9138Z" fill="white"/>
<path d="M193.393 95.5641C194.901 95.5641 196.123 94.3207 196.123 92.7869C196.123 91.2531 194.901 90.0098 193.393 90.0098C191.885 90.0098 190.663 91.2531 190.663 92.7869C190.663 94.3207 191.885 95.5641 193.393 95.5641Z" fill="#795548"/>
<path d="M207.718 101.847C209.226 101.847 210.448 100.604 210.448 99.0701C210.448 97.5363 209.226 96.293 207.718 96.293C206.211 96.293 204.988 97.5363 204.988 99.0701C204.988 100.604 206.211 101.847 207.718 101.847Z" fill="#795548"/>
<path opacity="0.05" d="M191.083 93.215C191.083 92.6924 191.228 92.1803 191.501 91.7379C191.775 91.2955 192.166 90.9407 192.629 90.7145C193.092 90.4884 193.608 90.4001 194.119 90.4598C194.629 90.5194 195.113 90.7247 195.513 91.0519C195.273 90.7473 194.973 90.4977 194.632 90.3191C194.291 90.1406 193.917 90.0373 193.534 90.0159C193.151 89.9945 192.768 90.0555 192.41 90.1949C192.052 90.3343 191.726 90.549 191.455 90.825C191.184 91.101 190.973 91.432 190.837 91.7965C190.7 92.161 190.64 92.5508 190.661 92.9403C190.683 93.3298 190.785 93.7104 190.96 94.0572C191.136 94.404 191.382 94.7092 191.681 94.9529C191.293 94.4601 191.082 93.8468 191.083 93.215Z" fill="white"/>
<path d="M190.666 103.039C192.173 103.039 193.395 101.795 193.395 100.262C193.395 98.7278 192.173 97.4844 190.666 97.4844C189.158 97.4844 187.936 98.7278 187.936 100.262C187.936 101.795 189.158 103.039 190.666 103.039Z" fill="#795548"/>
<path opacity="0.05" d="M188.356 100.688C188.357 100.166 188.503 99.6544 188.776 99.2127C189.05 98.7709 189.441 98.4167 189.904 98.1907C190.366 97.9648 190.882 97.8763 191.392 97.9354C191.902 97.9944 192.386 98.1987 192.786 98.5248C192.548 98.2153 192.248 97.9609 191.906 97.7783C191.564 97.5958 191.187 97.4893 190.802 97.4659C190.416 97.4424 190.03 97.5027 189.669 97.6425C189.308 97.7824 188.98 97.9987 188.707 98.2771C188.435 98.5555 188.223 98.8897 188.087 99.2575C187.951 99.6253 187.893 100.018 187.918 100.411C187.942 100.803 188.048 101.185 188.229 101.533C188.409 101.88 188.661 102.185 188.966 102.426C188.572 101.935 188.357 101.321 188.356 100.688Z" fill="white"/>
<path d="M199.271 89.8004C200.779 89.8004 202.001 88.557 202.001 87.0232C202.001 85.4895 200.779 84.2461 199.271 84.2461C197.763 84.2461 196.541 85.4895 196.541 87.0232C196.541 88.557 197.763 89.8004 199.271 89.8004Z" fill="#795548"/>
<path opacity="0.05" d="M196.962 87.4489C196.963 86.9267 197.108 86.4154 197.382 85.9737C197.656 85.5319 198.046 85.1777 198.509 84.9517C198.972 84.7258 199.488 84.6373 199.998 84.6964C200.508 84.7554 200.991 84.9597 201.392 85.2858C201.152 84.9825 200.852 84.7341 200.511 84.5567C200.17 84.3793 199.797 84.2768 199.414 84.2559C199.032 84.2351 198.65 84.2963 198.292 84.4356C197.935 84.5749 197.61 84.7892 197.34 85.0645C197.069 85.3399 196.858 85.6701 196.722 86.0337C196.585 86.3973 196.524 86.7861 196.545 87.175C196.565 87.5638 196.666 87.9439 196.841 88.2905C197.015 88.6371 197.259 88.9424 197.557 89.1867C197.17 88.6932 196.96 88.0802 196.962 87.4489Z" fill="white"/>
<path d="M197.172 93.857C198.68 93.857 199.902 92.6137 199.902 91.0799C199.902 89.5461 198.68 88.3027 197.172 88.3027C195.665 88.3027 194.442 89.5461 194.442 91.0799C194.442 92.6137 195.665 93.857 197.172 93.857Z" fill="#795548"/>
<path opacity="0.05" d="M194.863 91.5083C194.864 90.9859 195.009 90.4742 195.282 90.0321C195.556 89.5899 195.946 89.2353 196.409 89.009C196.872 88.7827 197.388 88.6939 197.898 88.7529C198.409 88.8119 198.892 89.0162 199.293 89.3424C199.053 89.0392 198.753 88.7908 198.412 88.6133C198.072 88.4359 197.698 88.3334 197.316 88.3126C196.934 88.2917 196.551 88.3529 196.194 88.4922C195.836 88.6315 195.512 88.8458 195.241 89.1212C194.971 89.3965 194.76 89.7267 194.623 90.0903C194.486 90.4539 194.426 90.8428 194.446 91.2316C194.467 91.6204 194.568 92.0005 194.742 92.3471C194.916 92.6937 195.161 92.9991 195.459 93.2434C195.072 92.7507 194.862 92.1387 194.863 91.5083Z" fill="white"/>
<path d="M198.85 97.7008C200.358 97.7008 201.58 96.4574 201.58 94.9236C201.58 93.3899 200.358 92.1465 198.85 92.1465C197.342 92.1465 196.12 93.3899 196.12 94.9236C196.12 96.4574 197.342 97.7008 198.85 97.7008Z" fill="#795548"/>
<path opacity="0.05" d="M196.541 95.3498C196.542 94.8276 196.688 94.3163 196.961 93.8746C197.235 93.4328 197.626 93.0786 198.088 92.8526C198.551 92.6267 199.067 92.5382 199.577 92.5973C200.087 92.6563 200.57 92.8606 200.971 93.1867C200.731 92.8821 200.431 92.6324 200.09 92.4539C199.749 92.2754 199.375 92.1721 198.992 92.1507C198.609 92.1293 198.226 92.1903 197.868 92.3297C197.51 92.4691 197.184 92.6838 196.913 92.9598C196.642 93.2358 196.431 93.5668 196.295 93.9313C196.158 94.2958 196.098 94.6855 196.119 95.0751C196.141 95.4646 196.243 95.8452 196.418 96.192C196.594 96.5388 196.84 96.844 197.139 97.0876C196.75 96.595 196.539 95.9816 196.541 95.3498Z" fill="white"/>
<path d="M203.047 105.599C204.555 105.599 205.777 104.356 205.777 102.822C205.777 101.288 204.555 100.045 203.047 100.045C201.54 100.045 200.317 101.288 200.317 102.822C200.317 104.356 201.54 105.599 203.047 105.599Z" fill="#795548"/>
<path opacity="0.05" d="M200.741 103.25C200.741 102.727 200.886 102.215 201.159 101.773C201.433 101.33 201.824 100.975 202.287 100.749C202.75 100.523 203.266 100.435 203.777 100.494C204.287 100.554 204.771 100.759 205.171 101.087C204.931 100.783 204.631 100.535 204.29 100.357C203.949 100.18 203.576 100.078 203.194 100.057C202.811 100.036 202.429 100.097 202.072 100.236C201.714 100.376 201.39 100.59 201.119 100.865C200.848 101.141 200.638 101.471 200.501 101.834C200.364 102.198 200.304 102.587 200.324 102.976C200.345 103.365 200.445 103.745 200.62 104.091C200.794 104.438 201.038 104.743 201.337 104.987C200.949 104.494 200.739 103.881 200.741 103.25Z" fill="white"/>
<path d="M206.406 99.1949C207.913 99.1949 209.136 97.9516 209.136 96.4178C209.136 94.884 207.913 93.6406 206.406 93.6406C204.898 93.6406 203.676 94.884 203.676 96.4178C203.676 97.9516 204.898 99.1949 206.406 99.1949Z" fill="#795548"/>
<path d="M177.263 95.4254C178.771 95.4254 179.993 94.182 179.993 92.6482C179.993 91.1145 178.771 89.8711 177.263 89.8711C175.755 89.8711 174.533 91.1145 174.533 92.6482C174.533 94.182 175.755 95.4254 177.263 95.4254Z" fill="#795548"/>
<path opacity="0.05" d="M204.097 96.8455C204.098 96.3233 204.243 95.812 204.517 95.3702C204.791 94.9285 205.181 94.5743 205.644 94.3483C206.107 94.1224 206.623 94.0339 207.133 94.093C207.643 94.152 208.126 94.3563 208.527 94.6823C208.288 94.3776 207.988 94.1277 207.647 93.949C207.306 93.7702 206.932 93.6666 206.549 93.6449C206.166 93.6232 205.783 93.6839 205.424 93.8231C205.066 93.9622 204.741 94.1767 204.469 94.4525C204.198 94.7283 203.987 95.0591 203.85 95.4235C203.713 95.7879 203.653 96.1776 203.674 96.5672C203.695 96.9568 203.797 97.3374 203.972 97.6843C204.148 98.0313 204.393 98.3366 204.692 98.5805C204.305 98.0884 204.095 97.476 204.097 96.8455Z" fill="white"/>
<path d="M199.482 102.185C200.99 102.185 202.212 100.942 202.212 99.408C202.212 97.8742 200.99 96.6309 199.482 96.6309C197.974 96.6309 196.752 97.8742 196.752 99.408C196.752 100.942 197.974 102.185 199.482 102.185Z" fill="#795548"/>
<path opacity="0.05" d="M197.172 99.8337C197.173 99.3115 197.318 98.8002 197.592 98.3584C197.866 97.9167 198.256 97.5625 198.719 97.3365C199.182 97.1106 199.698 97.022 200.208 97.0811C200.718 97.1402 201.201 97.3445 201.602 97.6705C201.362 97.3673 201.062 97.1189 200.721 96.9415C200.38 96.7641 200.007 96.6616 199.624 96.6407C199.242 96.6198 198.86 96.6811 198.502 96.8204C198.145 96.9597 197.82 97.174 197.55 97.4493C197.279 97.7246 197.068 98.0548 196.932 98.4185C196.795 98.7821 196.734 99.1709 196.755 99.5597C196.775 99.9485 196.876 100.329 197.051 100.675C197.225 101.022 197.469 101.327 197.767 101.571C197.379 101.079 197.169 100.465 197.172 99.8337Z" fill="white"/>
<path d="M199.899 105.599C201.407 105.599 202.629 104.356 202.629 102.822C202.629 101.288 201.407 100.045 199.899 100.045C198.391 100.045 197.169 101.288 197.169 102.822C197.169 104.356 198.391 105.599 199.899 105.599Z" fill="#795548"/>
<path opacity="0.05" d="M197.59 103.25C197.59 102.728 197.735 102.215 198.008 101.773C198.282 101.331 198.672 100.976 199.136 100.75C199.599 100.524 200.115 100.435 200.626 100.495C201.136 100.555 201.619 100.76 202.02 101.087C201.78 100.783 201.48 100.533 201.139 100.354C200.798 100.176 200.424 100.072 200.041 100.051C199.658 100.03 199.275 100.091 198.917 100.23C198.559 100.369 198.233 100.584 197.962 100.86C197.691 101.136 197.48 101.467 197.343 101.832C197.207 102.196 197.147 102.586 197.168 102.975C197.19 103.365 197.291 103.746 197.467 104.092C197.643 104.439 197.889 104.744 198.188 104.988C197.799 104.495 197.588 103.882 197.59 103.25Z" fill="white"/>
<path d="M191.925 107.949C193.433 107.949 194.655 106.705 194.655 105.172C194.655 103.638 193.433 102.395 191.925 102.395C190.418 102.395 189.195 103.638 189.195 105.172C189.195 106.705 190.418 107.949 191.925 107.949Z" fill="#795548"/>
<path opacity="0.05" d="M189.617 105.599C189.616 105.077 189.761 104.565 190.035 104.122C190.308 103.68 190.699 103.325 191.162 103.099C191.625 102.873 192.142 102.784 192.652 102.844C193.163 102.904 193.646 103.109 194.047 103.436C193.807 103.132 193.507 102.882 193.166 102.703C192.825 102.524 192.451 102.421 192.068 102.399C191.685 102.377 191.302 102.438 190.944 102.577C190.586 102.716 190.26 102.931 189.989 103.206C189.718 103.482 189.507 103.813 189.37 104.177C189.232 104.542 189.173 104.932 189.194 105.321C189.215 105.711 189.316 106.091 189.492 106.438C189.667 106.785 189.913 107.091 190.212 107.334C189.824 106.843 189.614 106.23 189.617 105.599Z" fill="white"/>
<path d="M182.9 98.9801C184.408 98.9801 185.63 97.7367 185.63 96.2029C185.63 94.6692 184.408 93.4258 182.9 93.4258C181.392 93.4258 180.17 94.6692 180.17 96.2029C180.17 97.7367 181.392 98.9801 182.9 98.9801Z" fill="#795548"/>
<path opacity="0.05" d="M180.591 96.631C180.59 96.1084 180.735 95.5963 181.009 95.1539C181.282 94.7114 181.673 94.3567 182.136 94.1305C182.599 93.9044 183.116 93.816 183.626 93.8757C184.137 93.9354 184.62 94.1407 185.021 94.4678C184.779 94.1665 184.479 93.9201 184.138 93.7446C183.797 93.569 183.424 93.4683 183.042 93.4488C182.661 93.4293 182.28 93.4916 181.923 93.6316C181.567 93.7716 181.244 93.9862 180.974 94.2614C180.704 94.5367 180.495 94.8665 180.358 95.2295C180.222 95.5925 180.162 95.9806 180.183 96.3686C180.203 96.7566 180.304 97.1359 180.477 97.4819C180.651 97.828 180.894 98.133 181.192 98.3773C180.8 97.8826 180.588 97.266 180.591 96.631Z" fill="white"/>
<path d="M185.627 98.7691C187.135 98.7691 188.357 97.5258 188.357 95.992C188.357 94.4582 187.135 93.2148 185.627 93.2148C184.12 93.2148 182.897 94.4582 182.897 95.992C182.897 97.5258 184.12 98.7691 185.627 98.7691Z" fill="#795548"/>
<path opacity="0.05" d="M183.318 96.4059C183.32 95.8842 183.466 95.3736 183.74 94.9325C184.014 94.4915 184.405 94.1378 184.867 93.9121C185.329 93.6863 185.845 93.5976 186.354 93.6561C186.864 93.7146 187.347 93.9179 187.748 94.2428C187.508 93.9396 187.208 93.6912 186.867 93.5137C186.527 93.3363 186.153 93.2338 185.771 93.213C185.389 93.1921 185.006 93.2533 184.649 93.3926C184.291 93.5319 183.967 93.7462 183.696 94.0216C183.426 94.2969 183.215 94.6271 183.078 94.9907C182.941 95.3543 182.881 95.7432 182.901 96.132C182.922 96.5208 183.023 96.9009 183.197 97.2475C183.371 97.5941 183.616 97.8995 183.914 98.1437C183.526 97.6508 183.316 97.0374 183.318 96.4059Z" fill="white"/>
<path d="M179.961 102.185C181.469 102.185 182.691 100.942 182.691 99.408C182.691 97.8742 181.469 96.6309 179.961 96.6309C178.454 96.6309 177.231 97.8742 177.231 99.408C177.231 100.942 178.454 102.185 179.961 102.185Z" fill="#795548"/>
<path opacity="0.05" d="M177.652 99.8337C177.653 99.3115 177.799 98.8002 178.072 98.3584C178.346 97.9167 178.737 97.5625 179.199 97.3365C179.662 97.1106 180.178 97.022 180.688 97.0811C181.198 97.1402 181.681 97.3445 182.082 97.6705C181.842 97.3673 181.542 97.1189 181.201 96.9415C180.861 96.7641 180.487 96.6616 180.105 96.6407C179.723 96.6198 179.34 96.6811 178.983 96.8204C178.625 96.9597 178.301 97.174 178.03 97.4493C177.76 97.7246 177.549 98.0548 177.412 98.4185C177.275 98.7821 177.215 99.1709 177.235 99.5597C177.256 99.9485 177.357 100.329 177.531 100.675C177.705 101.022 177.95 101.327 178.248 101.571C177.859 101.079 177.649 100.465 177.652 99.8337Z" fill="white"/>
<path d="M203.678 109.23C205.186 109.23 206.408 107.987 206.408 106.453C206.408 104.919 205.186 103.676 203.678 103.676C202.17 103.676 200.948 104.919 200.948 106.453C200.948 107.987 202.17 109.23 203.678 109.23Z" fill="#795548"/>
<path opacity="0.1" d="M203.678 109.23C205.186 109.23 206.408 107.987 206.408 106.453C206.408 104.919 205.186 103.676 203.678 103.676C202.17 103.676 200.948 104.919 200.948 106.453C200.948 107.987 202.17 109.23 203.678 109.23Z" fill="white"/>
<path opacity="0.05" d="M201.37 106.881C201.369 106.358 201.514 105.846 201.788 105.403C202.061 104.961 202.452 104.606 202.915 104.38C203.378 104.154 203.895 104.066 204.405 104.125C204.916 104.185 205.399 104.39 205.8 104.717C205.562 104.407 205.262 104.151 204.92 103.967C204.578 103.783 204.201 103.676 203.815 103.652C203.428 103.628 203.041 103.687 202.679 103.827C202.318 103.967 201.989 104.183 201.716 104.462C201.443 104.741 201.231 105.075 201.095 105.444C200.958 105.812 200.901 106.206 200.926 106.599C200.95 106.992 201.057 107.375 201.239 107.723C201.42 108.07 201.673 108.375 201.979 108.616C201.587 108.125 201.372 107.513 201.37 106.881Z" fill="white"/>
<path d="M200.949 99.1949C202.456 99.1949 203.679 97.9516 203.679 96.4178C203.679 94.884 202.456 93.6406 200.949 93.6406C199.441 93.6406 198.219 94.884 198.219 96.4178C198.219 97.9516 199.441 99.1949 200.949 99.1949Z" fill="#795548"/>
<path opacity="0.1" d="M200.949 99.1949C202.456 99.1949 203.679 97.9516 203.679 96.4178C203.679 94.884 202.456 93.6406 200.949 93.6406C199.441 93.6406 198.219 94.884 198.219 96.4178C198.219 97.9516 199.441 99.1949 200.949 99.1949Z" fill="white"/>
<path opacity="0.05" d="M198.64 96.8455C198.641 96.3233 198.786 95.812 199.06 95.3702C199.334 94.9285 199.724 94.5743 200.187 94.3483C200.65 94.1224 201.166 94.0339 201.676 94.093C202.186 94.152 202.669 94.3563 203.07 94.6823C202.831 94.3776 202.531 94.1277 202.19 93.949C201.849 93.7702 201.475 93.6666 201.092 93.6449C200.709 93.6232 200.326 93.6839 199.967 93.8231C199.609 93.9622 199.284 94.1767 199.012 94.4525C198.741 94.7283 198.53 95.0591 198.393 95.4235C198.256 95.7879 198.196 96.1776 198.217 96.5672C198.238 96.9568 198.34 97.3374 198.515 97.6843C198.691 98.0313 198.936 98.3366 199.235 98.5805C198.848 98.0884 198.638 97.476 198.64 96.8455Z" fill="white"/>
<path d="M193.182 92.15C194.69 92.15 195.912 90.9066 195.912 89.3729C195.912 87.8391 194.69 86.5957 193.182 86.5957C191.674 86.5957 190.452 87.8391 190.452 89.3729C190.452 90.9066 191.674 92.15 193.182 92.15Z" fill="#795548"/>
<path opacity="0.1" d="M193.182 92.15C194.69 92.15 195.912 90.9066 195.912 89.3729C195.912 87.8391 194.69 86.5957 193.182 86.5957C191.674 86.5957 190.452 87.8391 190.452 89.3729C190.452 90.9066 191.674 92.15 193.182 92.15Z" fill="white"/>
<path opacity="0.05" d="M190.876 89.7985C190.877 89.2764 191.022 88.765 191.296 88.3233C191.57 87.8815 191.96 87.5273 192.423 87.3014C192.886 87.0754 193.402 86.9869 193.912 87.046C194.422 87.1051 194.905 87.3093 195.306 87.6354C195.066 87.3321 194.766 87.0837 194.425 86.9063C194.084 86.7289 193.711 86.6264 193.328 86.6055C192.946 86.5847 192.564 86.6459 192.207 86.7852C191.849 86.9245 191.525 87.1388 191.254 87.4141C190.983 87.6895 190.773 88.0197 190.636 88.3833C190.499 88.7469 190.438 89.1358 190.459 89.5246C190.48 89.9134 190.58 90.2935 190.755 90.6401C190.929 90.9867 191.173 91.292 191.471 91.5363C191.083 91.0435 190.873 90.43 190.876 89.7985Z" fill="white"/>
<path d="M168.97 25.5737C168.837 35.0656 160.966 42.5718 151.635 42.5718H150.337C149.189 42.5676 148.086 43.0206 147.263 43.8336C146.638 44.4286 146.203 45.2008 146.015 46.0503C145.926 46.3932 145.883 46.7464 145.884 47.1009V63.8567C145.892 67.0777 144.989 70.233 143.282 72.9459C140.837 76.8271 139.406 81.2689 139.406 85.8768C139.405 86.9499 139.194 88.0122 138.786 89.0016C138.377 89.9911 137.779 90.8878 137.026 91.6395C136.273 92.3912 135.381 92.9829 134.401 93.3799C133.421 93.7769 132.373 93.9714 131.318 93.9519C126.955 93.8703 123.532 90.0538 123.532 85.612V81.421L121.37 81.6801V85.8768C121.369 86.9501 121.158 88.0124 120.749 89.0019C120.341 89.9913 119.742 90.888 118.989 91.6397C118.236 92.3914 117.343 92.983 116.363 93.38C115.383 93.7769 114.335 93.9714 113.28 93.9519C108.916 93.8703 105.497 90.0538 105.497 85.612V83.4911C103.332 84.4094 91.0663 84.4094 87.6608 83.5221L86.736 83.4489V85.8768C86.7355 86.9499 86.5248 88.0122 86.1163 89.0016C85.7078 89.9911 85.1097 90.8878 84.3568 91.6395C83.6039 92.3912 82.7114 92.9829 81.7314 93.3799C80.7513 93.7769 79.7033 93.9714 78.6486 93.9519C74.2823 93.8703 70.8629 90.0538 70.8629 85.612V82.1279L70.1403 82.0603V85.8768C70.1401 86.5529 70.0583 87.2264 69.8966 87.8822C69.45 89.6435 68.4332 91.2004 67.01 92.3017C65.5869 93.4029 63.8406 93.9843 62.0528 93.9519C58.0631 93.8787 54.868 90.6847 54.3391 86.7443C54.2942 86.3704 54.2702 85.9943 54.2671 85.6177V68.0788C54.2582 62.0541 56.2407 56.2013 59.896 51.461C60.5296 50.6224 60.8843 49.6004 60.9087 48.543C60.9331 47.4856 60.6259 46.4478 60.0316 45.5799C55.9921 39.5609 50.0171 29.4043 50.2137 22.2023C50.2636 20.118 50.8256 18.29 52.1048 16.8733C52.1823 16.786 52.2626 16.6987 52.3429 16.617C58.1572 10.4205 68.4015 15.296 67.5072 23.8106C67.2081 26.6633 67.4163 29.5474 68.1219 32.3251C68.5221 33.8949 69.0653 35.4235 69.7443 36.8908C70.4227 38.3637 71.5401 39.5819 72.9377 40.3721C74.3353 41.1624 75.9421 41.4846 77.53 41.2931C78.6095 41.1604 79.6959 41.0945 80.7833 41.0959H114.138C116.095 41.0922 118.001 40.4654 119.59 39.3037C121.179 38.1419 122.371 36.5033 122.998 34.6178C123.336 33.6289 123.506 32.5889 123.502 31.5421V5.14786C123.502 4.45923 123.637 3.77756 123.901 3.14337C124.165 2.50917 124.551 1.93539 125.037 1.45614C125.524 0.976882 126.099 0.601933 126.731 0.353574C127.362 0.105215 128.036 -0.0114867 128.713 0.0104106C129.374 0.0303761 130.024 0.186137 130.625 0.468325C131.225 0.750513 131.763 1.1533 132.207 1.65248C133.109 2.6669 133.61 3.98536 133.613 5.35347C133.613 5.71101 133.683 6.06505 133.817 6.39534C133.952 6.72562 134.149 7.02569 134.398 7.27838C134.646 7.53107 134.942 7.73142 135.266 7.86799C135.591 8.00456 135.939 8.07466 136.291 8.07429H152.012C154.259 8.07329 156.485 8.52711 158.558 9.40934C160.632 10.2916 162.512 11.5846 164.09 13.2131C165.667 14.8417 166.911 16.7732 167.748 18.8952C168.585 21.0173 168.998 23.2875 168.965 25.5737H168.97Z" fill="#F3AD55"/>
<path d="M69.8798 87.8824C69.4332 89.6437 68.4163 91.2006 66.9932 92.3019C65.5701 93.4031 63.8237 93.9845 62.0359 93.9521C58.0462 93.8789 54.8511 90.6849 54.3223 86.7445C59.1288 85.4207 65.7876 84.5138 69.8798 87.8824Z" fill="#FBDCA3"/>
<path d="M86.4727 87.8824C86.0271 89.6438 85.0109 91.2009 83.5881 92.3022C82.1654 93.4036 80.4192 93.9848 78.6316 93.9522C74.6419 93.8789 71.433 90.6849 70.918 86.7445C75.7245 85.4207 82.3833 84.5138 86.4727 87.8824Z" fill="#FBDCA3"/>
<path d="M121.107 87.8824C120.661 89.644 119.645 91.2012 118.221 92.3025C116.798 93.4038 115.052 93.985 113.264 93.9521C109.274 93.8789 106.065 90.6849 105.553 86.7445C110.356 85.4207 117.015 84.5138 121.107 87.8824Z" fill="#FBDCA3"/>
<path d="M139.145 87.8824C138.699 89.6437 137.682 91.2006 136.259 92.3019C134.836 93.4031 133.089 93.9845 131.302 93.9521C127.312 93.8789 124.103 90.6849 123.588 86.7445C128.394 85.4207 135.053 84.5138 139.145 87.8824Z" fill="#FBDCA3"/>
<path d="M68.1054 32.3344C62.4987 30.0445 55.6461 25.8562 50.1973 22.2116C50.2471 20.1273 50.8092 18.2993 52.0883 16.8826C52.1658 16.7953 52.2461 16.708 52.3264 16.6263C58.1408 10.4298 68.3851 15.3053 67.4908 23.8198C67.1916 26.6725 67.3998 29.5567 68.1054 32.3344Z" fill="#FBDCA3"/>
<path d="M74.8945 41.1562C74.8945 41.1562 90.3302 60.923 115.595 41.1055L74.8945 41.1562Z" fill="#FBDCA3"/>
<path d="M123.516 4.4043C123.516 4.4043 132.896 16.8818 123.516 32.2885V4.4043Z" fill="#FBDCA3"/>
<path d="M145.884 46.9785C145.884 46.9785 137.622 57.4196 145.773 65.706L145.884 46.9785Z" fill="#FBDCA3"/>
<path opacity="0.1" d="M146.604 44.7748C145.992 45.3607 146.2 45.9268 146.014 46.7858L119.193 39.6374C120.636 38.5107 122.424 37.1644 123.017 35.373C126.229 37.9108 132.586 42.1695 146.604 44.7748Z" fill="black"/>
<path d="M147.263 43.8348C146.638 44.4297 146.203 45.202 146.014 46.0515L119.866 39.117C121.326 37.9729 122.421 36.4146 123.011 34.6387C126.229 37.1792 133.242 41.2295 147.263 43.8348Z" fill="#383F4D"/>
<path opacity="0.1" d="M123.995 36.1055C123.995 36.1055 132.177 42.3639 145.885 44.2989L123.995 36.1055Z" fill="black"/>
<path d="M123.995 35.373C123.995 35.373 132.177 41.6315 145.885 43.5693L123.995 35.373Z" fill="#F3AD55"/>
<path opacity="0.1" d="M144.441 35.9684C144.441 35.9684 158.149 40.3707 161.757 26.4258L144.441 35.9684Z" fill="black"/>
<path d="M144.441 35.2331C144.441 35.2331 158.149 39.6383 161.757 25.6934L144.441 35.2331Z" fill="#FBDCA3"/>
<path d="M168.973 26.4246C169.77 26.4246 170.416 25.2745 170.416 23.8558C170.416 22.4372 169.77 21.2871 168.973 21.2871C168.176 21.2871 167.53 22.4372 167.53 23.8558C167.53 25.2745 168.176 26.4246 168.973 26.4246Z" fill="#383F4D"/>
<path opacity="0.1" d="M59.6664 76.7043L62.5515 53.2168C62.5515 53.2168 53.8909 67.1617 59.6664 76.7043Z" fill="black"/>
<path d="M63.2653 53.2168C63.2653 53.2168 54.6075 67.1617 60.3775 76.7043L63.2653 53.2168Z" fill="#FBDCA3"/>
</g>
<defs>
<linearGradient id="paint0_linear_39_44" x1="127.5" y1="150.001" x2="127.5" y2="22.9727" gradientUnits="userSpaceOnUse">
<stop stop-color="#808080" stop-opacity="0.25"/>
<stop offset="0.54" stop-color="#808080" stop-opacity="0.12"/>
<stop offset="1" stop-color="#808080" stop-opacity="0.1"/>
</linearGradient>
<linearGradient id="paint1_linear_39_44" x1="154.771" y1="99.513" x2="222.052" y2="99.513" gradientUnits="userSpaceOnUse">
<stop stop-color="#808080" stop-opacity="0.25"/>
<stop offset="0.54" stop-color="#808080" stop-opacity="0.12"/>
<stop offset="1" stop-color="#808080" stop-opacity="0.1"/>
</linearGradient>
<clipPath id="clip0_39_44">
<rect width="255" height="150" fill="white"/>
</clipPath>
</defs>
</svg>
