<svg width="255" height="150" viewBox="0 0 255 150" fill="none" xmlns="http://www.w3.org/2000/svg">
<g clip-path="url(#clip0_39_257)">
<path d="M63.6464 140.121C98.7974 140.121 127.293 123.274 127.293 102.491C127.293 81.7089 98.7974 64.8613 63.6464 64.8613C28.4955 64.8613 0 81.7089 0 102.491C0 123.274 28.4955 140.121 63.6464 140.121Z" fill="#424246"/>
<path d="M97.8566 106.569C97.8566 107.782 97.777 108.977 97.6179 110.153C97.5967 110.344 97.5702 110.535 97.5384 110.727C95.3213 125.214 81.6586 136.472 64.893 137.112H64.8878C64.7021 137.121 64.5165 137.127 64.3308 137.13C64.0126 137.14 63.6997 137.143 63.3814 137.143C62.2596 137.144 61.1392 137.096 60.0294 136.999C59.9658 136.992 59.9021 136.986 59.8385 136.98C43.5397 135.506 30.5982 123.963 29.0654 109.472C29.0548 109.372 29.0442 109.272 29.0389 109.171C28.9487 108.312 28.9045 107.445 28.9063 106.569C28.9063 89.6821 44.3405 75.9941 63.3814 75.9941C82.4223 75.9941 97.8566 89.6821 97.8566 106.569Z" fill="#424246"/>
<path d="M62.3208 94.8086C86.3407 94.8086 105.813 83.2961 105.813 69.0947C105.813 54.8934 86.3407 43.3809 62.3208 43.3809C38.301 43.3809 18.8291 54.8934 18.8291 69.0947C18.8291 83.2961 38.301 94.8086 62.3208 94.8086Z" fill="#424246"/>
<path d="M62.3203 91.6727C67.3 91.6727 71.3369 91.1111 71.3369 90.4184C71.3369 89.7256 67.3 89.1641 62.3203 89.1641C57.3406 89.1641 53.3037 89.7256 53.3037 90.4184C53.3037 91.1111 57.3406 91.6727 62.3203 91.6727Z" fill="#2F2E41"/>
<path d="M48.5301 77.562C50.5806 77.562 52.2428 76.5793 52.2428 75.367C52.2428 74.1546 50.5806 73.1719 48.5301 73.1719C46.4796 73.1719 44.8174 74.1546 44.8174 75.367C44.8174 76.5793 46.4796 77.562 48.5301 77.562Z" fill="#2F2E41"/>
<path d="M76.1102 77.562C78.1606 77.562 79.8229 76.5793 79.8229 75.367C79.8229 74.1546 78.1606 73.1719 76.1102 73.1719C74.0597 73.1719 72.3975 74.1546 72.3975 75.367C72.3975 76.5793 74.0597 77.562 76.1102 77.562Z" fill="#2F2E41"/>
<path opacity="0.1" d="M62.8512 127.108C62.8544 128.538 62.6771 129.966 62.3208 131.379C61.8506 133.295 61.018 135.174 59.8386 136.98C43.5399 135.506 30.5984 123.963 29.0656 109.472C29.055 109.372 29.0444 109.272 29.0391 109.171C32.1896 107.807 35.7485 107.039 39.5142 107.039C50.7001 107.039 60.0455 113.806 62.3208 122.841C62.6771 124.253 62.8544 125.68 62.8512 127.108Z" fill="black"/>
<path d="M62.8508 129.931C62.854 131.36 62.6767 132.788 62.3204 134.202C60.5489 141.226 54.5025 146.883 46.6369 149.047C45.1446 149.462 43.5581 149.748 41.927 149.893C41.1284 149.965 40.3216 150.001 39.5138 150C37.2313 149.998 34.9741 149.718 32.8839 149.175C31.2053 148.746 29.6361 148.18 28.2219 147.495C21.0404 144.076 16.1768 137.491 16.1768 129.931C16.1768 118.845 26.6254 109.861 39.5138 109.861C50.6997 109.861 60.0451 116.628 62.3204 125.663C62.6767 127.076 62.854 128.502 62.8508 129.931Z" fill="#424246"/>
<path opacity="0.1" d="M97.6177 110.153C97.5965 110.344 97.57 110.536 97.5381 110.727C95.3211 125.214 81.6583 136.472 64.8928 137.112H64.8875C63.6649 135.265 62.8036 133.342 62.3204 131.379C61.6132 128.548 61.6132 125.672 62.3204 122.841C64.5958 113.806 73.9412 107.039 85.1271 107.039C89.7202 107.039 94.0057 108.18 97.6177 110.153Z" fill="black"/>
<path d="M108.464 129.931C108.464 138.241 102.593 145.368 94.2285 148.416C92.8281 148.933 91.3148 149.334 89.7308 149.608C86.7578 150.125 83.5969 150.131 80.6188 149.624C78.8374 149.32 77.144 148.86 75.596 148.257C68.9184 145.685 63.9063 140.492 62.3204 134.202C61.6132 131.371 61.6132 128.494 62.3204 125.663C64.5958 116.628 73.9412 109.861 85.1271 109.861C98.0155 109.861 108.464 118.845 108.464 129.931Z" fill="#424246"/>
<path d="M62.3205 74.4258C49.1389 74.4258 38.4531 79.7188 38.4531 85.0876C38.4531 88.2361 42.1311 91.0334 47.8292 92.8099C49.9503 90.5027 55.6363 88.8506 62.3205 88.8506C69.0048 88.8506 74.6908 90.5027 76.8119 92.8099C82.51 91.0334 86.1879 88.2361 86.1879 85.0876C86.188 79.7188 75.5022 74.4258 62.3205 74.4258Z" fill="#FFBF00"/>
<path d="M61.2602 88.8518C64.7752 88.8518 67.6248 87.4478 67.6248 85.7159C67.6248 83.984 64.7752 82.5801 61.2602 82.5801C57.7451 82.5801 54.8955 83.984 54.8955 85.7159C54.8955 87.4478 57.7451 88.8518 61.2602 88.8518Z" fill="#3F3D56"/>
<path d="M19.0937 74.5822C24.0734 74.5822 28.1103 70.0193 28.1103 64.3907C28.1103 58.7621 24.0734 54.1992 19.0937 54.1992C14.114 54.1992 10.0771 58.7621 10.0771 64.3907C10.0771 70.0193 14.114 74.5822 19.0937 74.5822Z" fill="#FFBF00"/>
<path d="M102.895 74.5822C107.874 74.5822 111.911 70.0193 111.911 64.3907C111.911 58.7621 107.874 54.1992 102.895 54.1992C97.9148 54.1992 93.8779 58.7621 93.8779 64.3907C93.8779 70.0193 97.9148 74.5822 102.895 74.5822Z" fill="#FFBF00"/>
<path d="M72.1329 40.0894C70.9342 40.0889 69.7708 40.3297 68.8344 40.7722C68.0461 40.0083 66.905 39.3933 65.5455 38.9999C64.186 38.6064 62.6647 38.4507 61.1606 38.5512C59.6565 38.6516 58.2323 39.004 57.0555 39.5669C55.8787 40.1298 54.9984 40.8797 54.5182 41.7284C53.9552 41.1157 53.0629 40.6314 51.9823 40.352C50.9017 40.0727 49.6945 40.0143 48.5515 40.186C47.4084 40.3577 46.3948 40.7497 45.6708 41.3002C44.9468 41.8506 44.5537 42.528 44.5537 43.2252C44.5537 43.9225 44.9468 44.5999 45.6708 45.1503C46.3948 45.7008 47.4084 46.0928 48.5515 46.2645C49.6945 46.4362 50.9017 46.3778 51.9823 46.0985C53.0629 45.8191 53.9552 45.3348 54.5182 44.7221C54.9984 45.5708 55.8787 46.3207 57.0555 46.8836C58.2323 47.4465 59.6565 47.7989 61.1606 47.8993C62.6647 47.9998 64.186 47.8441 65.5455 47.4506C66.905 47.0571 68.0461 46.4422 68.8344 45.6783C69.4971 45.9898 70.2762 46.2029 71.1067 46.2999C71.9372 46.3969 72.795 46.375 73.6082 46.2358C74.4214 46.0967 75.1664 45.8445 75.781 45.5003C76.3956 45.1561 76.8618 44.7298 77.1408 44.2572C77.4197 43.7847 77.5031 43.2795 77.3842 42.7839C77.2653 42.2884 76.9473 41.8168 76.4571 41.4088C75.9668 41.0008 75.3184 40.6681 74.5661 40.4385C73.8138 40.209 72.9795 40.0893 72.1329 40.0894Z" fill="#3F3D56"/>
<path d="M32.8838 137.613V149.175C31.2051 148.746 29.6359 148.18 28.2217 147.494L32.8838 137.613Z" fill="#2F2E41"/>
<path d="M46.6366 149.047C45.1443 149.463 43.5578 149.748 41.9268 149.894L44.409 139.311L46.6366 149.047Z" fill="#2F2E41"/>
<path d="M80.6185 137.613V149.624C78.8371 149.32 77.1437 148.859 75.5957 148.256L80.6185 137.613Z" fill="#2F2E41"/>
<path d="M94.2281 148.417C92.8277 148.934 91.3145 149.334 89.7305 149.609L92.1437 139.311L94.2281 148.417Z" fill="#2F2E41"/>
<path d="M49.4938 75.6524C50.1452 75.6524 50.6732 75.3402 50.6732 74.9551C50.6732 74.57 50.1452 74.2578 49.4938 74.2578C48.8425 74.2578 48.3145 74.57 48.3145 74.9551C48.3145 75.3402 48.8425 75.6524 49.4938 75.6524Z" fill="white"/>
<path d="M77.2096 75.6524C77.861 75.6524 78.389 75.3402 78.389 74.9551C78.389 74.57 77.861 74.2578 77.2096 74.2578C76.5583 74.2578 76.0303 74.57 76.0303 74.9551C76.0303 75.3402 76.5583 75.6524 77.2096 75.6524Z" fill="white"/>
<path d="M196.916 7.83984C164.837 7.83984 138.831 23.215 138.831 42.1813C138.817 47.8785 141.211 53.4874 145.795 58.4985C141.86 59.4028 138.391 60.8972 135.729 62.8346C133.066 64.7721 131.303 67.0858 130.611 69.5484C129.92 72.0109 130.325 74.5375 131.786 76.8795C133.247 79.2215 135.714 81.2984 138.944 82.9059C142.174 84.5134 146.056 85.5961 150.208 86.0477C154.361 86.4992 158.64 86.3039 162.626 85.481C166.613 84.6582 170.168 83.2361 172.942 81.3546C175.717 79.4731 177.616 77.197 178.451 74.7502C184.403 75.9277 190.639 76.5263 196.916 76.5228C228.995 76.5228 255 61.1476 255 42.1813C255 23.2151 228.995 7.83984 196.916 7.83984Z" fill="#F2F2F2"/>
<path opacity="0.1" d="M195.754 60.3638C211.584 60.3638 224.416 59.0831 224.416 57.5032C224.416 55.9233 211.584 54.6426 195.754 54.6426C179.925 54.6426 167.093 55.9233 167.093 57.5032C167.093 59.0831 179.925 60.3638 195.754 60.3638Z" fill="black"/>
<path d="M233.054 36.0751C233.067 51.9576 217.101 57.507 197.403 57.5127C196.946 57.5128 196.49 57.5099 196.037 57.504C195.124 57.4926 194.221 57.4683 193.327 57.431C175.548 56.6919 161.73 50.8663 161.718 36.0956C161.705 20.8098 194.733 1.50991 197.209 0.08288C197.212 0.08288 197.212 0.0828799 197.214 0.0815829C197.308 0.0271943 197.356 0 197.356 0C197.356 0 233.041 20.1939 233.054 36.0751Z" fill="#FFBF00"/>
<path d="M196.103 55.0836L209.14 44.3034L196.071 56.2666L196.037 57.5039C195.124 57.4926 194.221 57.4682 193.327 57.431L194.72 41.5416L194.708 41.4187L194.733 41.3953L194.865 39.8939L181.744 27.9085L194.903 38.7691L194.936 39.0875L195.988 27.0825L184.754 14.6966L196.125 24.9727L197.21 0.0828311L197.214 0L197.214 0.081534L197.046 19.7098L208.211 11.9252L196.999 21.4002L196.713 32.1495L207.14 21.8309L196.672 33.7299L196.513 39.707L211.646 25.3436L196.456 41.7922L196.103 55.0836Z" fill="#3F3D56"/>
</g>
<defs>
<clipPath id="clip0_39_257">
<rect width="255" height="150" fill="white"/>
</clipPath>
</defs>
</svg>
