<svg width="255" height="150" viewBox="0 0 255 150" fill="none" xmlns="http://www.w3.org/2000/svg">
<g clip-path="url(#clip0_39_284)">
<path d="M42.1383 105.901C40.9096 106.015 39.5692 106.186 38.1433 106.437C32.0978 107.498 31.9723 111.038 32.0253 111.85L31.9842 111.828C31.3763 112.668 30.9956 113.519 30.7655 114.323L30.4887 103.474C30.6677 103.152 30.8306 102.787 30.9664 102.413C31.4189 103.614 32.1607 104.75 32.8002 104.674C33.6317 104.577 33.9942 102.467 33.8391 100.968C34.8965 102.142 36.676 103.398 37.3473 103.01C37.8838 102.701 37.5657 101.427 36.98 100.269C38.2003 100.903 39.5518 101.32 39.9712 100.917C40.5435 100.368 39.1722 98.4933 37.9075 97.447C39.6004 97.5832 41.7534 97.3506 41.8945 96.6862C42.0108 96.1388 40.7295 95.4481 39.358 95.0035C40.7355 94.6903 42.0237 94.1446 41.981 93.6047C41.9303 92.9633 40.0177 92.5336 38.3678 92.4682C39.6123 91.6287 40.7558 90.4681 40.4061 89.9432C40.0846 89.4607 38.589 89.6476 37.2092 90.0726C38.0258 89.0659 38.5999 87.9316 38.1627 87.5434C37.618 87.0598 35.6851 87.8944 34.366 88.817C34.6228 87.3797 34.493 85.5655 33.7454 85.4014C33.1199 85.264 32.2335 86.3194 31.6258 87.469C31.3572 86.2626 30.8135 85.1172 30.1859 85.1172C29.2919 85.1172 28.5672 87.4414 28.5672 88.9556C28.5672 89.0412 28.5698 89.1218 28.5744 89.1988C28.4846 89.1091 28.3818 89.0154 28.2645 88.9172C27.0048 87.8622 24.5663 86.6913 23.9435 87.2443C23.5063 87.6325 24.0803 88.7668 24.8969 89.7735C23.5171 89.3485 22.0215 89.1616 21.7 89.6441C21.2681 90.2925 23.1145 91.9111 24.6154 92.696C24.5252 92.6866 24.4304 92.6788 24.3295 92.6728C22.5776 92.5698 19.8391 93.035 19.7782 93.8041C19.7355 94.344 21.0237 94.8897 22.4013 95.2029C21.0298 95.6475 19.7484 96.3382 19.8647 96.8856C20.0059 97.55 22.1589 97.7826 23.8517 97.6464C22.5871 98.6927 21.2157 100.567 21.788 101.116C22.2074 101.519 23.5589 101.102 24.7792 100.468C24.1936 101.627 23.8755 102.9 24.4119 103.21C25.1208 103.619 27.0651 102.196 28.0902 100.971C27.9857 102.469 28.4015 104.527 29.2263 104.609C29.5713 104.642 29.9368 104.325 30.2667 103.837L29.3324 115.498C29.114 116.856 30.511 117.742 30.6358 118.302L30.8374 126.199C30.6099 125.636 30.3036 125.061 29.8906 124.489L29.8496 124.511C29.9025 123.7 29.777 120.16 23.7315 119.099C22.3057 118.848 20.9653 118.677 19.7366 118.563C18.2862 118.429 17.7205 120.141 19.0307 120.694C20.9282 121.495 22.7131 122.503 23.6435 123.698C26.0221 126.753 29.3086 124.987 29.7759 124.713C30.2978 125.462 30.64 126.217 30.8562 126.935L30.9632 131.129C30.937 131.228 30.9188 131.284 30.9174 131.288L30.9675 131.301L31.2265 141.45L33.6291 141.433L32.7697 131.059C32.9141 130.499 33.3584 128.593 32.7697 126.613L31.9104 118.462C31.9082 118.456 31.9592 118.676 31.9104 118.462L30.7894 115.259C30.9524 114.269 31.3307 113.154 32.099 112.051C32.5663 112.325 35.8528 114.091 38.2314 111.036C39.1617 109.842 40.9467 108.833 42.8442 108.032C44.1544 107.479 43.5887 105.767 42.1383 105.901L42.1383 105.901ZM31.1634 129.914L31.1181 128.139C31.2095 128.81 31.2048 129.416 31.1634 129.914Z" fill="#F2F2F2"/>
<path d="M226.003 105.901C224.774 106.015 223.433 106.186 222.008 106.437C215.962 107.498 215.837 111.038 215.89 111.85L215.848 111.828C215.241 112.668 214.86 113.519 214.63 114.323L214.353 103.474C214.532 103.152 214.695 102.787 214.831 102.413C215.283 103.614 216.025 104.75 216.664 104.674C217.496 104.577 217.858 102.467 217.703 100.968C218.761 102.142 220.54 103.398 221.212 103.01C221.748 102.701 221.43 101.427 220.844 100.269C222.065 100.903 223.416 101.32 223.836 100.917C224.408 100.368 223.036 98.4933 221.772 97.447C223.465 97.5832 225.618 97.3506 225.759 96.6862C225.875 96.1388 224.594 95.4481 223.222 95.0035C224.6 94.6903 225.888 94.1446 225.845 93.6047C225.795 92.9633 223.882 92.5336 222.232 92.4682C223.477 91.6287 224.62 90.4681 224.27 89.9432C223.949 89.4607 222.453 89.6476 221.073 90.0726C221.89 89.0659 222.464 87.9316 222.027 87.5434C221.482 87.0598 219.549 87.8944 218.23 88.817C218.487 87.3797 218.357 85.5655 217.61 85.4014C216.984 85.264 216.098 86.3194 215.49 87.469C215.221 86.2626 214.678 85.1172 214.05 85.1172C213.156 85.1172 212.431 87.4414 212.431 88.9556C212.431 89.0412 212.434 89.1218 212.439 89.1988C212.349 89.1091 212.246 89.0154 212.129 88.9172C210.869 87.8622 208.431 86.6913 207.808 87.2443C207.371 87.6325 207.945 88.7668 208.761 89.7735C207.381 89.3485 205.886 89.1616 205.564 89.6441C205.132 90.2925 206.979 91.9111 208.48 92.696C208.389 92.6866 208.295 92.6788 208.194 92.6728C206.442 92.5698 203.703 93.035 203.642 93.8041C203.6 94.344 204.888 94.8897 206.266 95.2029C204.894 95.6475 203.613 96.3382 203.729 96.8856C203.87 97.55 206.023 97.7826 207.716 97.6464C206.451 98.6927 205.08 100.567 205.652 101.116C206.072 101.519 207.423 101.102 208.643 100.468C208.058 101.627 207.74 102.9 208.276 103.21C208.985 103.619 210.929 102.196 211.954 100.971C211.85 102.469 212.266 104.527 213.091 104.609C213.436 104.642 213.801 104.325 214.131 103.837L213.197 115.498C212.978 116.856 214.375 117.742 214.5 118.302L214.702 126.199C214.474 125.636 214.168 125.061 213.755 124.489L213.714 124.511C213.767 123.7 213.641 120.16 207.596 119.099C206.17 118.848 204.83 118.677 203.601 118.563C202.15 118.429 201.585 120.141 202.895 120.694C204.792 121.495 206.577 122.503 207.508 123.698C209.886 126.753 213.173 124.987 213.64 124.713C214.162 125.462 214.504 126.217 214.72 126.935L214.827 131.129C214.801 131.228 214.783 131.284 214.782 131.288L214.832 131.301L215.091 141.45L217.493 141.433L216.634 131.059C216.778 130.499 217.223 128.593 216.634 126.613L215.775 118.462C215.773 118.456 215.823 118.676 215.775 118.462L214.654 115.259C214.817 114.269 215.195 113.154 215.963 112.051C216.431 112.325 219.717 114.091 222.096 111.036C223.026 109.842 224.811 108.833 226.708 108.032C228.019 107.479 227.453 105.767 226.003 105.901V105.901ZM215.028 129.914L214.982 128.139C215.074 128.81 215.069 129.416 215.028 129.914Z" fill="#F2F2F2"/>
<path d="M188.702 72.6892L187.575 49.5298C187.575 49.5298 186.31 35.7806 185.297 30.9792C184.285 26.1779 177.451 27.4873 177.451 27.4873L178.21 41.2366L181.487 55.3072L184.036 74.4674C183.905 75.0217 183.831 75.6241 183.831 76.2566C183.831 78.9409 185.131 81.1169 186.734 81.1169C188.338 81.1169 189.638 78.9409 189.638 76.2566C189.638 74.8446 189.276 73.5772 188.702 72.6892V72.6892Z" fill="#FFB6B6"/>
<path d="M133.862 66.6884C135.06 65.458 136.495 64.6219 137.783 64.3001L152.936 49.5298C152.936 49.5298 154.201 35.7806 155.214 30.9792C156.226 26.1779 163.06 27.4873 163.06 27.4873L162.3 41.2366L157.998 56.0771L140.267 69.0575C139.957 69.5439 139.578 70.0301 139.123 70.4971C136.966 72.7125 134.04 73.6559 132.587 72.6042C131.134 71.5525 131.705 68.9039 133.862 66.6884Z" fill="#FFB6B6"/>
<path d="M167.2 25.6323L168.958 19.8055L175.805 19.5215L177.854 27.5535L167.2 25.6323Z" fill="#FFB6B6"/>
<path opacity="0.1" d="M167.2 25.6323L168.958 19.8055L175.805 19.5215L177.854 27.5535L167.2 25.6323Z" fill="black"/>
<path d="M149.714 121.089L143.301 120.773L144.142 137.746L148.488 137.96L149.714 121.089Z" fill="#FFB6B6"/>
<path d="M143.587 132.379L145.814 133.255L145.811 134.419C145.811 134.419 146.348 133.072 149.232 132.778L149.576 133.906C149.576 133.906 150.695 135.013 150.503 137.016L149.769 142.378L147.594 142.335L147.242 138.603C147.242 138.603 146.643 137.757 143.884 141.78C143.884 141.78 140.844 142.441 136.136 141.08C135.489 140.893 135.04 140.372 135.048 139.783C135.053 139.459 135.2 139.159 135.672 139.051C136.874 138.777 138.048 139.124 138.824 138.297C139.6 137.47 143.587 132.379 143.587 132.379Z" fill="#2F2E41"/>
<path d="M184.136 121.089L177.723 120.773L178.564 137.746L182.91 137.96L184.136 121.089Z" fill="#FFB6B6"/>
<path d="M178.008 132.379L180.235 133.255L180.233 134.419C180.233 134.419 180.77 133.072 183.654 132.778L183.998 133.906C183.998 133.906 185.116 135.013 184.925 137.016L184.19 142.378L182.016 142.335L181.664 138.603C181.664 138.603 181.065 137.757 178.306 141.78C178.306 141.78 175.266 142.441 170.558 141.08C169.911 140.893 169.461 140.372 169.47 139.783C169.475 139.459 169.622 139.159 170.094 139.051C171.296 138.777 172.47 139.124 173.246 138.297C174.022 137.47 178.008 132.379 178.008 132.379Z" fill="#2F2E41"/>
<path d="M172.465 23.2371C176.658 23.2371 180.058 20.3058 180.058 16.6899C180.058 13.0739 176.658 10.1426 172.465 10.1426C168.272 10.1426 164.872 13.0739 164.872 16.6899C164.872 20.3058 168.272 23.2371 172.465 23.2371Z" fill="#FFB6B6"/>
<path d="M176.771 17.7773C176.771 17.7773 173.432 13.0672 170.091 13.5871C166.749 14.107 165.007 14.5764 165.007 14.5764C165.007 14.5764 163.646 10.821 168.215 9.01928C168.215 9.01928 161.749 4.35145 168.64 1.35579C175.531 -1.63988 179.819 1.2634 179.819 1.2634C179.819 1.2634 185.522 5.43415 179.199 9.29402C179.199 9.29402 184.672 14.6698 179.144 19.8048C179.144 19.8048 180.12 15.8948 178.792 16.6963C177.465 17.4979 176.771 17.7773 176.771 17.7773Z" fill="#2F2E41"/>
<path d="M177.577 26.0678L167.2 24.9766L159.227 30.5418C159.227 30.5418 155.262 40.0681 158.215 45.8187C158.286 45.9565 158.342 55.5305 158.342 55.5305H180.389C180.389 55.5305 180.367 49.014 181.21 46.6538C181.33 46.3166 181.468 46.0643 181.626 45.9279C182.892 44.8366 185.929 37.8529 184.41 34.7975C182.892 31.7421 177.577 26.0678 177.577 26.0678V26.0678Z" fill="#FFBF00"/>
<path d="M158.215 55.0938L144.295 93.2862L141.258 123.404H149.736L156.95 95.4686L166.883 79.2981L176.691 125.586H185.25L185.043 62.9505L180.371 55.0938H158.215Z" fill="#424246"/>
<path d="M255 141.504H0V142.173H255V141.504Z" fill="#3F3D56"/>
<path d="M130.711 62.8234C128.184 59.3138 122.287 58.4881 117.907 60.1623C113.527 61.8364 110.499 65.4061 108.441 69.1367C106.383 72.8674 105.088 76.8869 102.973 80.5936C96.7489 91.5002 84.1449 98.6234 76.2164 108.674C70.2592 116.226 67.1046 125.395 67.3221 134.526C67.4053 138.024 68.0613 141.703 70.5925 144.437C74.3496 148.495 81.0016 149.327 86.9912 149.862C90.4705 150.172 94.7409 150.163 96.5328 147.573C97.2415 146.548 89.625 142.974 89.7472 141.785C90.4066 135.372 98.8213 131.299 99.4807 124.886C100.515 129.355 99.1896 133.968 99.3988 138.521C99.6079 143.074 102.211 148.224 107.381 149.166C108.976 149.456 110.778 149.255 111.987 148.312C113.196 147.368 113.549 145.586 112.472 144.531C113.575 145.502 115.437 145.755 116.832 145.122C118.228 144.49 119.042 143.024 118.74 141.69C118.517 140.709 117.783 139.884 117.147 139.048C113.702 134.519 112.805 128.618 114.779 123.477C118.269 114.388 129.729 108.456 131.671 99.0302C133.112 92.0301 128.999 84.098 133.364 78.0663C135.331 75.3481 138.671 73.6345 141.335 71.4009C143.999 69.1673 146.082 65.75 144.558 62.828L130.941 62.8152" fill="#424246"/>
<path d="M88.7201 143.054C88.3812 143.054 88.034 142.976 87.6984 142.821C86.9254 142.463 86.3426 141.757 86.2133 141.02C85.9983 139.795 86.6749 138.606 87.2186 137.65C88.7058 135.036 90.1759 132.24 90.3926 129.336C90.6293 126.165 89.1376 123.226 86.5926 121.848C84.7012 120.824 82.1758 120.56 79.482 121.107C77.096 121.591 74.9526 122.58 72.5976 123.727C72.4105 123.818 72.1736 123.761 72.0679 123.6C71.9623 123.439 72.0283 123.234 72.2151 123.143C74.5343 122.013 76.8216 120.957 79.3039 120.454C82.2018 119.867 84.9371 120.16 87.006 121.28C89.7893 122.787 91.4231 125.966 91.1685 129.379C90.9427 132.406 89.4382 135.271 87.9165 137.945C87.3947 138.862 86.8033 139.902 86.982 140.92C87.0744 141.446 87.5099 141.973 88.0659 142.23C88.3366 142.355 88.7496 142.468 89.1784 142.296C89.3733 142.217 89.6043 142.29 89.695 142.458C89.7856 142.626 89.7014 142.825 89.5068 142.903C89.2569 143.004 88.9913 143.054 88.7201 143.054Z" fill="#424246"/>
<path d="M118.51 62.5938C118.001 63.7959 118.68 65.1431 119.621 66.1326C120.562 67.1221 121.771 67.9177 122.6 68.979C124.339 71.2035 124.078 74.2447 122.742 76.6672C121.407 79.0898 119.155 81.0308 116.946 82.9199C117.11 82.1098 116.635 81.2921 115.987 80.6884C115.34 80.0847 114.525 79.6366 113.801 79.1015C110.43 76.6095 109.375 72.0684 111.374 68.6493" fill="#424246"/>
<path d="M72.4654 134.112C69.6098 133.81 67.1978 136.026 64.348 136.366C61.0526 136.759 58.022 134.51 56.5559 131.935C55.0897 129.36 54.7134 126.437 53.7047 123.704C52.696 120.97 50.75 118.201 47.5795 117.333C46.2494 116.968 44.7444 116.988 43.5087 117.547C42.273 118.107 41.3673 119.249 41.3982 120.452C41.4363 121.933 42.753 123.118 43.5506 124.43C44.8199 126.516 44.7805 128.988 45.3411 131.294C46.6891 136.839 51.9198 141.541 58.2886 142.933C61.5821 143.653 65.269 143.488 68.122 141.897C70.975 140.306 72.7139 137.102 71.6578 134.317" fill="#424246"/>
</g>
<defs>
<clipPath id="clip0_39_284">
<rect width="255" height="150" fill="white"/>
</clipPath>
</defs>
</svg>
